<svg width="9" height="8" viewBox="0 0 9 8" fill="none" xmlns="http://www.w3.org/2000/svg">
<path d="M8.60041 3.80005L5.45162 0.651185C5.36174 0.5613 5.24194 0.511963 5.1142 0.511963C4.98632 0.511963 4.86659 0.561371 4.77671 0.651185L4.49082 0.937142C4.40101 1.02688 4.35153 1.14675 4.35153 1.27456C4.35153 1.4023 4.40101 1.52621 4.49082 1.61595L6.32778 3.45695H0.491673C0.228541 3.45695 0.0206299 3.66295 0.0206299 3.92615V4.33042C0.0206299 4.59362 0.228541 4.82039 0.491673 4.82039H6.34862L4.49089 6.67167C4.40108 6.76155 4.3516 6.87816 4.3516 7.00597C4.3516 7.13364 4.40108 7.25195 4.49089 7.34176L4.77678 7.6268C4.86666 7.71668 4.98639 7.76567 5.11427 7.76567C5.24201 7.76567 5.36181 7.71605 5.45169 7.62616L8.60048 4.47737C8.69058 4.3872 8.74013 4.26684 8.73978 4.13889C8.74006 4.01051 8.69058 3.89007 8.60041 3.80005Z" fill="white"/>
</svg>
