<svg width="10" height="8" viewBox="0 0 10 8" fill="none" xmlns="http://www.w3.org/2000/svg">
<path d="M8.98335 3.80005L5.83456 0.651185C5.74467 0.5613 5.62487 0.511963 5.49714 0.511963C5.36926 0.511963 5.24953 0.561371 5.15964 0.651185L4.87376 0.937142C4.78394 1.02688 4.73446 1.14675 4.73446 1.27456C4.73446 1.4023 4.78394 1.52621 4.87376 1.61595L6.71072 3.45695H0.874607C0.611475 3.45695 0.403564 3.66295 0.403564 3.92615V4.33042C0.403564 4.59362 0.611475 4.82039 0.874607 4.82039H6.73156L4.87383 6.67167C4.78401 6.76155 4.73454 6.87816 4.73454 7.00597C4.73454 7.13364 4.78401 7.25195 4.87383 7.34176L5.15971 7.6268C5.2496 7.71668 5.36933 7.76567 5.49721 7.76567C5.62494 7.76567 5.74474 7.71605 5.83463 7.62616L8.98342 4.47737C9.07352 4.3872 9.12307 4.26684 9.12271 4.13889C9.123 4.01051 9.07352 3.89007 8.98335 3.80005Z" fill="white" fill-opacity="0.5"/>
</svg>
