<svg width="17" height="15" viewBox="0 0 17 15" fill="none" xmlns="http://www.w3.org/2000/svg">
<path fill-rule="evenodd" clip-rule="evenodd" d="M0.449951 1.75001C0.449951 1.445 0.571115 1.1525 0.786775 0.93683C1.00245 0.72117 1.29495 0.600006 1.59995 0.600006H15.4C15.7049 0.600006 15.9975 0.72117 16.2131 0.93683C16.4287 1.1525 16.55 1.445 16.55 1.75001C16.55 2.05501 16.4287 2.34751 16.2131 2.56318C15.9975 2.77884 15.7049 2.90001 15.4 2.90001H1.59995C1.29495 2.90001 1.00245 2.77884 0.786775 2.56318C0.571115 2.34751 0.449951 2.05501 0.449951 1.75001ZM0.449951 7.50001C0.449951 7.195 0.571115 6.9025 0.786775 6.68683C1.00245 6.47117 1.29495 6.35001 1.59995 6.35001H8.49995C8.80493 6.35001 9.09749 6.47117 9.31312 6.68683C9.52874 6.9025 9.64995 7.195 9.64995 7.50001C9.64995 7.80499 9.52874 8.09755 9.31312 8.31317C9.09749 8.5288 8.80493 8.65001 8.49995 8.65001H1.59995C1.29495 8.65001 1.00245 8.5288 0.786775 8.31317C0.571115 8.09755 0.449951 7.80499 0.449951 7.50001ZM0.449951 13.25C0.449951 12.945 0.571115 12.6525 0.786775 12.4368C1.00245 12.2212 1.29495 12.1 1.59995 12.1H15.4C15.7049 12.1 15.9975 12.2212 16.2131 12.4368C16.4287 12.6525 16.55 12.945 16.55 13.25C16.55 13.555 16.4287 13.8475 16.2131 14.0632C15.9975 14.2788 15.7049 14.4 15.4 14.4H1.59995C1.29495 14.4 1.00245 14.2788 0.786775 14.0632C0.571115 13.8475 0.449951 13.555 0.449951 13.25Z" fill="#092858"/>
</svg>
