<svg width="13" height="12" viewBox="0 0 13 12" fill="none" xmlns="http://www.w3.org/2000/svg">
<path d="M11.6621 7.87663C10.9274 7.87663 10.2061 7.76172 9.52247 7.53581C9.1875 7.42156 8.77572 7.52638 8.57128 7.73634L7.222 8.75491C5.65722 7.91963 4.69334 6.95606 3.86947 5.40303L4.85806 4.08891C5.11491 3.83241 5.20703 3.45772 5.09666 3.10616C4.86978 2.41897 4.75453 1.69794 4.75453 0.962937C4.75456 0.431969 4.32259 0 3.79166 0H1.58791C1.05697 0 0.625 0.431969 0.625 0.962906C0.625 7.04884 5.57619 12 11.6621 12C12.1931 12 12.625 11.568 12.625 11.0371V8.8395C12.625 8.30859 12.193 7.87663 11.6621 7.87663Z" fill="#70BD54"/>
</svg>
