<svg width="74" height="74" viewBox="0 0 74 74" fill="none" xmlns="http://www.w3.org/2000/svg">
<circle cx="36.6635" cy="36.665" r="36.665" fill="#70BD54"/>
<g clip-path="url(#clip0_1_249)">
<path d="M38.031 52.0626C55.4368 51.0637 58.6728 26.5505 42.1571 21.0459C37.587 19.5164 32.3469 20.212 28.3487 22.9091H28.3498C26.4969 24.1411 24.9227 25.7479 23.729 27.6257C22.5352 29.5036 21.7484 31.6108 21.4192 33.8115L21.4182 33.8108C19.8518 43.6343 28.0945 52.7122 38.031 52.0626ZM50.9133 41.9736C50.3451 43.3188 49.5814 44.5727 48.647 45.6949C48.5811 45.3016 48.7631 44.8461 48.4919 44.479C48.1976 43.9053 47.9251 43.3201 47.6185 42.7532C47.5045 42.5424 47.5359 42.4212 47.7039 42.2695C49.5034 40.6905 47.8992 41.5301 48.076 39.2734C48.0823 39.2124 48.0702 39.1509 48.0413 39.0968C48.0123 39.0428 47.9678 38.9987 47.9135 38.9702C47.0605 38.4256 45.9469 38.2386 45.0654 38.8438C43.9668 39.3631 42.3997 38.9659 42.0443 37.7049C41.73 36.8667 41.7686 36.0202 41.7603 35.1642C41.811 34.7026 42.4443 34.6251 42.3416 34.0916C42.366 33.4141 42.1451 32.6989 42.7858 32.2567C42.8349 32.2133 42.8934 32.1821 42.9567 32.1653C43.02 32.1485 43.0863 32.1468 43.1504 32.1601C43.7358 32.2309 44.3274 32.0929 44.8211 31.7705C45.3447 31.4386 45.9911 31.6534 46.5711 31.5779C46.8476 31.5582 47.0524 31.6394 47.2226 31.8546C47.5572 32.2771 48.0806 32.4011 48.5204 32.6577C48.6683 32.7441 48.7478 32.6352 48.8171 32.5457C49.1866 32.0691 49.7528 31.909 50.2492 31.6349C50.5196 31.48 51.0617 32.0715 51.5232 32.0925C52.4429 35.3116 52.2295 38.8952 50.9133 41.9736ZM50.6971 29.8749C50.146 29.9474 50.5166 29.4238 50.2322 29.1499C49.9466 28.895 49.6749 28.6249 49.4183 28.3407C49.2855 28.1989 49.1996 28.1761 49.046 28.3276C48.6335 28.7357 48.6567 28.6924 49.1377 29.1801C49.6993 29.7975 50.1226 29.7872 49.1065 30.2162C48.8752 30.3203 48.6568 30.5576 48.4045 30.2147C48.2517 30.0073 48.0438 29.8679 48.0685 29.5484C48.1064 29.0556 47.7305 28.6984 47.5565 28.2729C47.5046 28.146 47.4128 28.2354 47.3638 28.2979C46.9979 28.7684 46.4451 28.9503 45.9443 29.2117C45.0794 29.9679 45.2768 29.8856 44.1291 29.8527C44.0228 29.8572 43.9916 29.7291 43.9455 29.6542C43.3675 28.7081 43.4796 28.4775 44.0783 27.5843C44.2986 27.4522 45.2717 27.6047 45.4556 27.7968C45.5383 27.883 45.6062 27.9836 45.7255 28.1339C45.8172 27.7677 45.7708 27.4871 45.7803 27.2106C45.9354 26.0763 46.8885 26.5875 47.5651 26.3411C47.885 26.0967 48.0162 25.975 47.9484 25.855C49.0795 27.0347 50.0082 28.3928 50.6971 29.8749ZM47.8558 25.7601C47.394 25.4594 46.368 25.1424 46.3407 24.3994C46.8764 24.8176 47.3826 25.2723 47.8558 25.7601ZM26.6155 25.6164C27.4764 24.7542 28.4396 24.0007 29.4836 23.3726C29.8387 23.5539 30.092 24.2207 30.5374 23.9837C31.0124 23.7345 31.5186 23.5368 31.8596 23.0911C32.0528 22.8564 32.3909 23.036 32.6432 22.9649C33.6352 22.8305 33.9034 23.96 34.2745 24.632C34.2417 24.6595 34.2245 24.686 34.2102 24.6844C33.3495 24.5872 32.5602 24.8636 31.7801 25.164C31.5239 25.2627 31.3264 25.271 31.1661 25.0243C30.968 24.7192 30.7134 24.7104 30.3973 24.842C30.1046 25.0489 29.0528 25.0847 29.1255 25.5C29.1968 25.8902 28.8888 26.5552 29.5891 26.4223C29.9173 26.3081 30.1995 27.2779 30.4 26.7204C30.8304 24.9766 32.6448 26.4983 34.0438 25.3841C34.5585 25.0787 34.9818 26.0846 35.1818 26.4389C35.3338 26.7714 35.4437 27.1627 35.9781 27.0468C35.643 27.3821 35.3056 27.715 34.9742 28.0539C34.8781 28.1522 34.7907 28.1207 34.6828 28.0832C34.2661 27.9386 33.8438 27.8101 33.4286 27.6614C33.2306 27.5904 33.1356 27.5835 33.1401 27.8489C33.4791 29.6739 31.9244 27.9137 30.8447 29.2824C29.4975 30.6364 30.5401 31.7726 28.6885 33.1961C28.5778 33.2977 28.4858 33.3099 28.3764 33.2296C27.572 32.6586 25.7648 32.3483 25.1639 33.2817C25.1553 33.3098 25.1532 33.3395 25.1577 33.3686C25.1623 33.3976 25.1734 33.4252 25.1903 33.4494C25.5121 33.9652 25.5373 34.833 26.1483 33.9677C26.3302 33.8127 26.5438 33.8649 26.7301 33.8959C26.926 33.9284 26.8287 34.1359 26.8238 34.2566C26.8515 34.7379 27.5438 34.8236 27.4076 35.3654C27.3299 35.7573 27.8236 35.5407 28.0405 35.6064C28.3912 35.657 28.6573 35.5397 28.8821 35.2658C29.0526 35.0581 30.0313 34.917 30.2566 35.0506C30.4353 35.2307 30.5104 35.512 30.6386 35.7319C30.8516 36.1594 30.8608 36.168 31.1745 35.8301C31.8951 35.2644 32.908 35.712 33.5937 36.1048C34.1324 36.4066 33.9545 37.4838 34.7569 37.329C34.911 37.2926 34.9944 37.4239 35.0789 37.5191C35.6618 38.2322 36.6029 38.1469 36.9476 39.1247C37.1698 39.5325 37.146 39.8899 36.9573 40.2934C36.8231 41.0513 36.4505 41.6097 35.6635 41.822C35.0395 42.0461 36.0923 43.0642 34.664 43.4702C34.2976 43.55 34.2502 43.8306 34.2976 44.1595C34.4491 45.0069 34.2434 45.6464 33.3114 45.8697C33.0358 45.9607 33.0849 46.3272 32.9541 46.5361C32.3111 47.708 32.8956 48.5629 33.7145 49.3836C32.9957 49.4261 32.2168 49.4992 31.9683 48.7254C31.658 47.8239 31.3771 46.9147 30.9168 46.0719C30.7623 45.7889 30.8618 45.4601 30.8578 45.1532C30.7456 43.8974 29.4632 42.9574 29.7041 41.6194C29.7975 40.9492 28.8416 41.9062 27.8519 40.6866C27.522 40.2952 26.7545 39.3495 26.887 38.8593C27.158 38.1839 27.1865 37.3692 27.812 36.9005C28.0785 36.6934 28.1027 36.0475 27.6058 36.1727C26.3293 36.3863 26.602 35.4271 25.8544 35.6092C25.3481 35.6631 24.9827 35.4972 24.5893 35.143C23.4089 34.0574 23.0705 34.8617 22.3942 34.0569C22.8481 30.8598 24.3297 27.8972 26.6155 25.6164Z" fill="white"/>
</g>
<defs>
<clipPath id="clip0_1_249">
<rect width="32" height="32" fill="white" transform="translate(21.1649 20.1664)"/>
</clipPath>
</defs>
</svg>
