<svg width="50" height="51" viewBox="0 0 50 51" fill="none" xmlns="http://www.w3.org/2000/svg">
<mask id="mask0_5_251" style="mask-type:luminance" maskUnits="userSpaceOnUse" x="0" y="0" width="50" height="51">
<path d="M49.4823 0.078125H0.226624V50.9359H49.4823V0.078125Z" fill="white"/>
</mask>
<g mask="url(#mask0_5_251)">
<path fill-rule="evenodd" clip-rule="evenodd" d="M24.8565 0.078125C38.4577 0.078125 49.4865 11.4653 49.4865 25.5091C49.4865 39.5529 38.4577 50.9402 24.8565 50.9402C11.2549 50.9402 0.226624 39.5487 0.226624 25.5091C0.226624 11.4695 11.2549 0.078125 24.8565 0.078125Z" fill="#DC6A02"/>
</g>
<path fill-rule="evenodd" clip-rule="evenodd" d="M32.1662 34.669C34.2019 32.1117 35.1196 29.6275 34.8901 27.259C34.5552 23.7458 31.7781 21.7182 31.7488 21.7L31.6544 21.633L31.6425 21.5112C31.5366 20.3178 29.7896 18.6556 28.9012 17.9189L27.895 19.6237L27.7007 19.5506C25.3887 18.6617 22.6116 18.6861 21.1642 18.7774C19.0932 18.9113 17.6696 19.2949 17.3874 19.4898C17.4227 19.6055 17.6637 19.8429 18.6286 20.3057C18.7876 20.3787 18.8935 20.4396 18.964 20.4762C19.3819 20.7014 19.2701 21.018 19.1171 21.3225L19.4758 21.566L19.2994 21.6452L19.6994 20.6527L19.5404 21.7182L19.4992 22.0531L18.5109 21.4382C18.564 21.3346 18.811 20.9633 18.6932 20.9145C18.6465 20.8902 18.5347 20.8354 18.4229 20.7806C17.7755 20.4762 16.7991 20.0073 16.8871 19.3741C16.9164 19.1854 17.0873 19.0758 17.1459 19.0392C18.1461 18.4181 23.7296 17.5718 27.6833 18.9905L28.7655 17.1578L28.9891 17.3283C29.1069 17.4196 31.8606 19.569 32.1368 21.3407C32.6546 21.7426 35.0784 23.7884 35.4023 27.2042C35.6846 30.1207 34.4195 33.4269 30.8072 37.1653C29.2539 38.9067 26.9946 39.4669 26.8773 39.4973L26.3829 39.613L26.5887 39.132C26.5887 39.132 26.8888 38.4257 27.248 37.7377C27.6714 36.9218 27.9536 36.5321 28.1658 36.3616C27.9834 35.9293 27.6242 34.9795 27.6242 34.1575V33.713L28.0008 33.9322C28.0008 33.9322 30.1011 35.1378 30.9722 34.194V34.8455C30.2542 35.491 28.9071 34.943 28.1598 34.5959C28.283 35.4605 28.7128 36.3616 28.7188 36.3677L28.9012 36.7452H28.5126C28.289 36.8487 27.7419 37.8168 27.2773 38.8276C28.2423 38.4866 30.2894 37.555 31.231 35.631C32.0544 33.9566 32.2134 32.4831 31.7249 31.1253C30.6308 28.081 26.3536 26.2787 23.2352 24.9574L23.1353 24.9148C23.1999 25.1097 23.2884 25.3288 23.3883 25.5785C23.6238 26.1387 23.9294 26.7901 24.218 27.3564C24.3532 27.0642 24.5296 26.5771 24.6647 26.1265C24.8178 26.1935 24.9768 26.2604 25.1298 26.3335C24.6354 27.941 24.3651 28.0505 24.2767 28.0871L24.071 28.1723L23.9646 27.9714C23.7823 27.6304 23.1001 26.3092 22.7353 25.3045C22.6529 25.0731 22.5823 24.8539 22.547 24.6713C21.7232 24.3181 21.0112 24.0015 20.4467 23.6849C18.2286 22.4367 17.3402 21.4564 16.9929 20.9571H17.6403C18.0637 21.4443 18.9407 22.2419 20.6877 23.2282C21.3818 23.6179 22.3294 24.0198 23.4235 24.4825C26.6299 25.8342 31.0248 27.6913 32.1955 30.9488C32.6074 32.0934 32.596 33.3416 32.1662 34.6751M29.6187 10.6916H30.366V9.9183H29.6187V10.6916ZM24.5296 10.6916H25.2829V9.9183H24.5296V10.6916ZM19.764 13.5959C19.6994 13.7176 19.5995 13.8212 19.4698 13.8942C19.3407 13.9673 19.1995 14.0038 19.0525 14.0038C18.8935 14.0038 18.7638 13.9612 18.6699 13.8699C18.5755 13.7846 18.5228 13.6628 18.5228 13.5167C18.5228 13.3341 18.5933 13.1879 18.7345 13.0905C18.8756 12.9931 19.0818 12.9383 19.364 12.9383H19.77V13.5898L19.764 13.5959ZM20.5173 13.7664V12.2077C20.5113 11.8423 20.3936 11.5562 20.1585 11.3491C19.923 11.1421 19.6169 11.0447 19.2229 11.0447C18.964 11.0447 18.7285 11.0934 18.5228 11.1847C18.3166 11.2761 18.1521 11.41 18.0284 11.5745C17.9052 11.7388 17.846 11.9154 17.846 12.1102H18.5933C18.5933 11.9763 18.6465 11.8606 18.7583 11.7754C18.8641 11.6901 19.0053 11.6414 19.1757 11.6414C19.37 11.6414 19.517 11.6962 19.6169 11.8058C19.7113 11.9154 19.764 12.0554 19.764 12.232V12.4573H19.3054C18.811 12.4573 18.4343 12.5547 18.1695 12.7556C17.9052 12.9505 17.7695 13.2367 17.7695 13.602C17.7695 13.8942 17.8754 14.1378 18.0875 14.3387C18.2992 14.5335 18.5755 14.6371 18.9108 14.6371C19.2462 14.6371 19.5523 14.5092 19.7879 14.2474C19.7993 14.3996 19.7879 14.497 19.7879 14.5701H20.5113V13.7725L20.5173 13.7664ZM35.1902 11.4831C35.4317 11.1909 35.7432 11.0386 36.1198 11.0386C36.8319 11.0386 37.1966 11.4588 37.2025 12.299V14.5579H36.4493V12.3294C36.4493 12.092 36.4026 11.9215 36.3022 11.824C36.2023 11.7267 36.0553 11.6779 35.861 11.6779C35.5609 11.6779 35.3318 11.818 35.1902 12.092V14.564H34.4374V9.6626H35.1902V11.4892V11.4831ZM33.0605 13.6263C33.0605 13.4863 33.0074 13.3828 32.8961 13.3097C32.7843 13.2367 32.6014 13.1758 32.3485 13.121C32.0956 13.0662 31.878 12.9992 31.7075 12.9079C31.3309 12.7191 31.1485 12.4512 31.1485 12.092C31.1485 11.7936 31.2663 11.544 31.5133 11.3431C31.7542 11.1421 32.0663 11.0386 32.437 11.0386C32.837 11.0386 33.1604 11.1421 33.4079 11.3431C33.6548 11.5501 33.7785 11.8119 33.7785 12.1407H33.0253C33.0253 11.9885 32.9721 11.8667 32.8663 11.7693C32.7545 11.6718 32.6193 11.6231 32.437 11.6231C32.272 11.6231 32.1368 11.6597 32.037 11.7388C31.9311 11.818 31.8839 11.9215 31.8839 12.0554C31.8839 12.1772 31.9311 12.2686 32.031 12.3355C32.1309 12.4025 32.3252 12.4695 32.6193 12.5365C32.9135 12.6034 33.143 12.6826 33.3135 12.7739C33.4784 12.8652 33.6076 12.9809 33.6901 13.1088C33.7726 13.2367 33.8138 13.3949 33.8138 13.5837C33.8138 13.8942 33.6901 14.1439 33.4431 14.3387C33.1902 14.5335 32.8663 14.631 32.4663 14.631C32.19 14.631 31.9485 14.5823 31.7368 14.4787C31.5252 14.3753 31.3543 14.2352 31.2365 14.0586C31.1192 13.8821 31.0601 13.6872 31.0601 13.4802H31.7895C31.8014 13.6628 31.866 13.8029 31.9898 13.9003C32.1135 13.9978 32.278 14.0465 32.4842 14.0465C32.6899 14.0465 32.831 14.0099 32.9368 13.9308C33.0431 13.8577 33.0899 13.7542 33.0899 13.6263H33.0605ZM30.3719 14.564H29.6187V11.1117H30.3719V14.5701V14.564ZM28.7655 12.5913H26.9593V14.564H26.1772V9.9183H29.0303V10.5698H26.9534V11.952H28.76V12.5974L28.7655 12.5913ZM25.2888 14.564H24.5356V11.1117H25.2888V14.5701V14.564ZM22.5118 12.2442L23.1473 11.1056H23.9825L22.9589 12.8104L24.0178 14.564H23.188L22.5237 13.3828L21.8589 14.564H21.0231L22.0765 12.8104L21.0584 11.1056H21.8882L22.5118 12.2442ZM13.4278 9.9183L14.7281 13.4802L16.0165 9.9183H17.0282V14.5701H16.2515V13.0357L16.3281 10.9838L14.9984 14.5701H14.4394L13.1157 10.9838L13.1922 13.0297V14.564H12.4156V9.9183H13.4278ZM36.8438 39.0285C36.9024 39.0833 36.9318 39.1563 36.9258 39.2538C36.9203 39.3451 36.8731 39.4425 36.7966 39.5338C36.7141 39.6374 36.6202 39.6983 36.5258 39.7226C36.4319 39.747 36.3434 39.7226 36.261 39.6617L36.1492 39.7957C36.2495 39.887 36.3728 39.9174 36.5144 39.887C36.6555 39.8565 36.7847 39.7713 36.9024 39.6313C37.0142 39.4973 37.0729 39.3573 37.0848 39.2233C37.0967 39.0894 37.0495 38.9737 36.9496 38.8824C36.8905 38.8276 36.8259 38.7971 36.7554 38.7849C36.6908 38.7728 36.6142 38.7849 36.5318 38.8154C36.4493 38.8458 36.3494 38.9128 36.2197 39.0041C36.0905 39.1015 35.9966 39.1563 35.9256 39.1686C35.855 39.1868 35.7904 39.1685 35.7318 39.1138C35.6667 39.059 35.6433 38.9859 35.6493 38.9006C35.6553 38.8093 35.6965 38.724 35.773 38.6327C35.8495 38.5414 35.9375 38.4866 36.0319 38.4683C36.1258 38.4501 36.2083 38.4683 36.2788 38.5292L36.3907 38.3953C36.2848 38.3039 36.167 38.2674 36.0319 38.2918C35.8962 38.3161 35.773 38.3953 35.6612 38.5353C35.5549 38.6632 35.5022 38.7911 35.4963 38.925C35.4903 39.059 35.5315 39.1686 35.6259 39.2538C35.6846 39.3086 35.7492 39.339 35.8138 39.3451C35.8789 39.3512 35.9494 39.3451 36.0319 39.3025C36.1084 39.266 36.2083 39.2051 36.3201 39.1198C36.4319 39.0285 36.5318 38.9798 36.6142 38.9554C36.6967 38.9372 36.7727 38.9554 36.8378 39.0163L36.8438 39.0285ZM34.7668 39.7408C34.6724 39.8322 34.6257 39.9479 34.6257 40.0819C34.6257 40.2158 34.6724 40.3497 34.7728 40.4837L35.455 39.814L35.4436 39.8017C35.3373 39.6922 35.22 39.6313 35.0963 39.6191C34.9725 39.6069 34.8608 39.6435 34.7668 39.7408ZM35.8023 40.8308C35.9787 40.6603 36.0493 40.4594 36.014 40.228L35.8789 40.2401C35.8903 40.3376 35.8789 40.4228 35.8495 40.4959C35.8197 40.569 35.773 40.642 35.7079 40.709C35.5961 40.8186 35.461 40.8673 35.3079 40.849C35.1489 40.8308 35.0138 40.7577 34.8901 40.6237L34.8667 40.5994L35.6786 39.8079L35.614 39.7348C35.461 39.5643 35.296 39.473 35.1256 39.4547C34.9552 39.4365 34.8021 39.4973 34.661 39.6313C34.5726 39.7165 34.5139 39.8261 34.4841 39.9479C34.4548 40.0758 34.4608 40.2036 34.502 40.3376C34.5432 40.4715 34.6138 40.5933 34.7196 40.709L34.7609 40.7577C34.8608 40.8673 34.9725 40.9465 35.0963 40.9891C35.22 41.0378 35.3432 41.0439 35.4669 41.0195C35.5907 40.9951 35.702 40.9342 35.7964 40.8369L35.8023 40.8308ZM34.902 41.6162L34.7668 41.7319L33.7785 40.4715L33.9137 40.3558L34.902 41.6162ZM33.4725 40.1306C33.4725 40.1306 33.4431 40.0758 33.4431 40.0453C33.4431 40.0149 33.4605 39.9844 33.4899 39.9601C33.5197 39.9357 33.549 39.9296 33.5843 39.9296C33.6136 39.9296 33.6369 39.9479 33.6608 39.9722C33.6782 39.9966 33.6901 40.027 33.6901 40.0575C33.6901 40.0879 33.6722 40.1184 33.6429 40.1427C33.6136 40.1671 33.5843 40.1792 33.5549 40.1732C33.5251 40.1732 33.4958 40.1549 33.4784 40.1306H33.4725ZM32.6014 41.3666L32.4663 41.464L33.3547 42.7974L33.4958 42.7L32.8842 41.7867C32.8548 41.6649 32.8489 41.5553 32.8842 41.4457C32.9135 41.3422 32.9721 41.2569 33.0605 41.1961C33.1664 41.1169 33.2608 41.0926 33.3487 41.1169C33.4372 41.1413 33.5197 41.2144 33.6017 41.3301L34.1845 42.2068L34.3256 42.1094L33.7433 41.2326C33.6369 41.0743 33.5197 40.9769 33.4019 40.9465C33.2782 40.916 33.149 40.9464 33.0133 41.0439C32.9254 41.1048 32.8603 41.1839 32.8136 41.2752C32.7724 41.3726 32.7545 41.4762 32.7604 41.5919L32.6014 41.3666ZM32.1781 43.3454C32.0896 43.4002 31.9957 43.4124 31.9132 43.3941C31.8308 43.3698 31.7662 43.3211 31.7249 43.2419C31.6782 43.1445 31.6782 43.0471 31.7368 42.9435C31.7955 42.84 31.8959 42.7426 32.0484 42.6574L32.3192 42.5052L32.4842 42.8157C32.4901 42.9192 32.4663 43.0227 32.4136 43.1201C32.3604 43.2175 32.2839 43.2906 32.1781 43.3454ZM32.7192 43.1932C32.6779 43.1566 32.6372 43.0957 32.584 43.0105C32.5661 43.114 32.5309 43.2054 32.4663 43.2906C32.4076 43.3759 32.3252 43.4428 32.2367 43.4976C32.1016 43.5707 31.9778 43.595 31.8546 43.5646C31.7309 43.5341 31.6424 43.4611 31.5838 43.3454C31.5133 43.2054 31.5133 43.0653 31.5838 42.9192C31.6544 42.773 31.7895 42.6513 31.9898 42.5356L32.2665 42.3834L32.1781 42.219C32.1249 42.1155 32.0544 42.0546 31.9604 42.0303C31.872 42.0059 31.7662 42.0303 31.6484 42.0911C31.5426 42.152 31.472 42.2251 31.4308 42.3225C31.3895 42.4199 31.3895 42.5052 31.4308 42.5843L31.2777 42.6696C31.2191 42.5539 31.2191 42.4321 31.2777 42.286C31.3369 42.1459 31.4367 42.0363 31.5898 41.9511C31.7428 41.8658 31.8839 41.8415 32.0131 41.8719C32.1428 41.9024 32.2486 41.9876 32.3252 42.1277L32.6725 42.8035C32.743 42.9435 32.8136 43.0349 32.8782 43.0897V43.108L32.7251 43.1993L32.7192 43.1932ZM30.913 43.2175C30.8365 43.0227 30.7426 42.8887 30.6189 42.8096C30.5011 42.7305 30.3719 42.7182 30.2368 42.773C30.1364 42.8157 30.0658 42.8705 30.0132 42.9496C29.96 43.0288 29.9367 43.1201 29.9307 43.2297L30.2129 43.9482C30.2835 44.0213 30.366 44.0639 30.4544 44.0761C30.5423 44.0882 30.6368 44.0761 30.7366 44.0395C30.8718 43.9847 30.9543 43.8812 30.9836 43.7411C31.0134 43.6011 30.9895 43.4184 30.9071 43.2054L30.913 43.2175ZM31.0839 43.181C31.1779 43.4184 31.1957 43.6255 31.1485 43.802C31.1013 43.9847 30.9955 44.1065 30.8251 44.1795C30.6248 44.2648 30.4484 44.2526 30.2835 44.1552L30.5836 44.9224L30.4246 44.9893L29.6127 42.907L29.7598 42.8461L29.8482 43.0532C29.8894 42.8461 30.0132 42.7061 30.207 42.6208C30.3838 42.5478 30.5424 42.56 30.6954 42.6574C30.8484 42.7548 30.9722 42.9192 31.0661 43.1627V43.1871L31.0839 43.181ZM27.2773 43.5524L27.3419 43.8082C27.3772 43.6986 27.4304 43.6133 27.5069 43.5402C27.5775 43.4733 27.6654 43.4246 27.7712 43.4002C28.0127 43.3393 28.1891 43.4002 28.3009 43.5889C28.3362 43.4793 28.3894 43.3819 28.4659 43.3089C28.5419 43.2297 28.6363 43.181 28.7481 43.1566C29.0716 43.0775 29.2833 43.2175 29.3717 43.5829L29.6187 44.6362L29.4482 44.6788L29.2067 43.6377C29.1774 43.4976 29.1188 43.4002 29.0482 43.3454C28.9777 43.2906 28.8718 43.2784 28.7422 43.315C28.6244 43.3454 28.5305 43.4124 28.4659 43.5159C28.4008 43.6133 28.3774 43.7229 28.3948 43.8386L28.6363 44.8797L28.4659 44.9224L28.2244 43.8691C28.1951 43.7351 28.1359 43.6437 28.0599 43.5889C27.9834 43.5341 27.883 43.5281 27.7598 43.5585C27.654 43.5829 27.5715 43.6377 27.5069 43.7229C27.4478 43.8021 27.4065 43.9116 27.4006 44.0395L27.654 45.1233L27.4831 45.1659L27.1183 43.5889L27.2773 43.5463V43.5524ZM25.6535 44.5632C25.6709 44.758 25.7301 44.9102 25.8419 45.0259C25.9477 45.1416 26.0828 45.1903 26.2359 45.1781C26.3949 45.1659 26.5121 45.0929 26.6006 44.9589C26.6831 44.825 26.7183 44.6606 26.7005 44.4536V44.417C26.689 44.2952 26.6538 44.1796 26.6006 44.0821C26.5474 43.9847 26.4769 43.9116 26.3949 43.8629C26.3124 43.8142 26.218 43.7959 26.1122 43.802C25.9591 43.8142 25.8359 43.8873 25.7534 44.0273C25.665 44.1613 25.6297 44.3257 25.6476 44.5327V44.5632H25.6535ZM25.4766 44.5327C25.4652 44.3744 25.4766 44.2343 25.5298 44.1065C25.577 43.9786 25.6535 43.8691 25.7534 43.7899C25.8533 43.7107 25.971 43.6681 26.1062 43.6498C26.3124 43.6316 26.4888 43.6925 26.6299 43.8325C26.771 43.9725 26.8535 44.1674 26.8773 44.4109V44.4475C26.8947 44.5997 26.8773 44.7458 26.8301 44.8737C26.7829 45.0015 26.7124 45.105 26.6125 45.1842C26.5121 45.2634 26.3949 45.306 26.2592 45.3181C26.0535 45.3364 25.8771 45.2755 25.7355 45.1355C25.5944 44.9954 25.5124 44.8006 25.4886 44.557V44.5205L25.4766 44.5327ZM24.5589 45.239C24.6767 45.239 24.7825 45.2086 24.865 45.1355C24.9475 45.0685 24.9947 44.9772 25.0001 44.8676H25.1651C25.1591 44.9711 25.1239 45.0563 25.0707 45.1355C25.0121 45.2147 24.9415 45.2816 24.8476 45.3242C24.7591 45.3669 24.6593 45.3912 24.5534 45.3851C24.3472 45.3851 24.1882 45.306 24.071 45.1538C23.9532 45.0015 23.9 44.8006 23.9 44.551V44.4961C23.9 44.3379 23.9353 44.1978 23.9885 44.0761C24.0471 43.9543 24.1236 43.8629 24.2235 43.7959C24.3239 43.729 24.4416 43.6986 24.5768 43.7046C24.7472 43.7046 24.8883 43.7655 25.0001 43.8691C25.1119 43.9786 25.1651 44.1186 25.1711 44.2891H25.0061C25.0061 44.1613 24.9594 44.0578 24.8829 43.9725C24.8004 43.8934 24.7005 43.8508 24.5768 43.8508C24.4238 43.8508 24.3 43.9056 24.2121 44.0213C24.1236 44.1369 24.0764 44.3013 24.0764 44.5084V44.5632C24.0764 44.7702 24.1117 44.9345 24.1942 45.0502C24.2767 45.1659 24.4004 45.2268 24.5589 45.2329V45.239ZM22.2409 45.1477L22.4586 43.6925L22.1997 43.6559L22.2236 43.5098L22.4824 43.5524L22.5118 43.3576C22.5351 43.1932 22.5942 43.0775 22.6881 42.9984C22.782 42.9253 22.8998 42.8948 23.0469 42.9192C23.112 42.9314 23.1706 42.9496 23.2238 42.974L23.188 43.1201C23.1413 43.1018 23.0881 43.0836 23.0355 43.0775C22.9411 43.0653 22.8645 43.0775 22.7999 43.1323C22.7413 43.1871 22.7001 43.2662 22.6822 43.3759L22.6529 43.5768L23.0235 43.6377L23.0002 43.7838L22.6295 43.7229L22.4119 45.1781L22.2409 45.1477ZM20.641 43.9847C20.5938 44.1735 20.6052 44.3379 20.6703 44.484C20.7349 44.6301 20.8467 44.7215 20.9997 44.7641C21.1528 44.8006 21.2879 44.7763 21.4116 44.6788C21.5349 44.5814 21.6174 44.4353 21.6705 44.2343V44.1978C21.7058 44.0761 21.7113 43.9604 21.6939 43.8508C21.676 43.7411 21.6352 43.6498 21.5702 43.5707C21.5056 43.4915 21.4231 43.4428 21.3232 43.4184C21.1761 43.3819 21.035 43.4124 20.9113 43.5098C20.7881 43.6072 20.6996 43.7534 20.6524 43.9482V43.9786L20.641 43.9847ZM20.476 43.8934C20.5113 43.7411 20.5759 43.6133 20.6584 43.5098C20.7468 43.4063 20.8467 43.3271 20.9645 43.2906C21.0822 43.248 21.2114 43.248 21.3411 43.2784C21.5408 43.3271 21.6879 43.4489 21.7823 43.6255C21.8703 43.802 21.8882 44.0152 21.829 44.2587L21.8176 44.2952C21.7823 44.4475 21.7232 44.5753 21.6353 44.6849C21.5468 44.7945 21.4469 44.8676 21.3292 44.9041C21.2114 44.9468 21.0822 44.9468 20.9525 44.9163C20.7523 44.8615 20.6052 44.7458 20.5113 44.5693C20.4229 44.3927 20.4055 44.1795 20.4641 43.936V43.8995L20.476 43.8934ZM19.2875 43.4672C19.364 43.2784 19.3933 43.108 19.364 42.9679C19.3347 42.8218 19.2522 42.7243 19.1171 42.6635C19.0227 42.6208 18.9287 42.6087 18.8343 42.6269C18.7464 42.6452 18.6639 42.6878 18.5874 42.767L18.2873 43.4793C18.2873 43.5829 18.3166 43.6681 18.3698 43.7473C18.4229 43.8203 18.4994 43.8812 18.5933 43.9238C18.7285 43.9847 18.8582 43.9725 18.9759 43.8995C19.0992 43.8203 19.1995 43.6803 19.2875 43.4672ZM19.4346 43.5646C19.3407 43.7959 19.211 43.9543 19.0579 44.0517C18.8994 44.143 18.7404 44.1552 18.5755 44.0761C18.3817 43.9908 18.2579 43.8508 18.2107 43.662L17.8932 44.4231L17.7342 44.35L18.5933 42.2921L18.7404 42.359L18.6579 42.5721C18.8289 42.4625 19.0112 42.4503 19.211 42.5356C19.3819 42.6087 19.4877 42.7365 19.529 42.9192C19.5702 43.0957 19.5404 43.3089 19.4405 43.5463L19.4286 43.5707L19.4346 43.5646ZM17.3929 43.2358L17.299 43.4184L17.446 43.5037L18.2227 42.0972L18.0696 42.0059L17.5047 43.0227C17.3462 43.1749 17.1579 43.1871 16.9343 43.0592C16.7226 42.9375 16.6928 42.7426 16.8398 42.4686L17.3342 41.5736L17.1872 41.4883L16.6813 42.4016C16.5869 42.5721 16.5576 42.7243 16.581 42.8583C16.6048 42.9923 16.6928 43.0957 16.8398 43.1871C17.0401 43.3028 17.2224 43.3211 17.3874 43.2419L17.3929 43.2358ZM15.4516 41.2387C15.3398 41.397 15.2926 41.5553 15.2985 41.7136C15.3045 41.8719 15.375 41.9998 15.4988 42.0972C15.622 42.1946 15.7636 42.219 15.9107 42.1764C16.0578 42.1337 16.1929 42.0303 16.3107 41.8658L16.3281 41.8354C16.3986 41.738 16.4458 41.6284 16.4697 41.5188C16.493 41.4092 16.4871 41.3057 16.4518 41.2083C16.4165 41.1108 16.3633 41.0378 16.2814 40.9708C16.1576 40.8734 16.0165 40.849 15.8694 40.8917C15.7224 40.9342 15.5867 41.0378 15.4695 41.2022L15.4516 41.2265V41.2387ZM15.3398 41.0926C15.4282 40.9647 15.534 40.8734 15.6518 40.8064C15.7691 40.7394 15.8928 40.7151 16.0165 40.7212C16.1398 40.7333 16.2575 40.776 16.3693 40.8612C16.5402 40.9891 16.6282 41.1535 16.652 41.3544C16.6694 41.5553 16.6048 41.7562 16.4637 41.9572L16.4399 41.9876C16.3519 42.1155 16.2461 42.2129 16.1283 42.2738C16.0105 42.3407 15.8868 42.3651 15.7636 42.359C15.6399 42.3469 15.5221 42.2982 15.4103 42.219C15.2399 42.0911 15.1515 41.9267 15.1341 41.7258C15.1162 41.5249 15.1753 41.3239 15.3224 41.123L15.3398 41.0926ZM15.5986 40.4837C15.5986 40.4837 15.5514 40.4228 15.5162 40.3985C15.4342 40.3254 15.3457 40.2889 15.2513 40.2828C15.1574 40.2828 15.0575 40.3132 14.9572 40.3802L14.2456 41.2144L14.1159 41.0987L15.1514 39.8809L15.2752 39.9966L15.1162 40.1915C15.3045 40.1062 15.4809 40.1367 15.6339 40.2767C15.6692 40.3132 15.693 40.3376 15.7045 40.368L15.5986 40.4898V40.4837ZM13.8571 40.5019L14.4101 39.9722L13.9043 39.406L13.7925 39.5095L14.1751 39.9357L13.7746 40.3193C13.7219 40.3193 13.6573 40.3071 13.5868 40.2767C13.475 40.228 13.3686 40.1427 13.2628 40.027C13.1748 39.9235 13.1157 39.814 13.0983 39.6922C13.0804 39.5643 13.0983 39.4425 13.151 39.3147C13.2042 39.1868 13.2866 39.065 13.4044 38.9554L13.5868 38.7788C13.7746 38.5962 13.9574 38.5049 14.1398 38.4927C14.3222 38.4805 14.4752 38.5475 14.6103 38.6997C14.7221 38.8215 14.7808 38.9493 14.7867 39.0833C14.7987 39.2172 14.7515 39.3451 14.6575 39.473L14.7808 39.6069C14.9045 39.4486 14.9631 39.2842 14.9572 39.1076C14.9517 38.9311 14.8692 38.7606 14.7221 38.5962C14.5512 38.4074 14.3574 38.3161 14.1338 38.3222C13.9102 38.3283 13.6926 38.4379 13.475 38.6449L13.2807 38.8336C13.1455 38.9676 13.0452 39.1076 12.9865 39.266C12.9274 39.4182 12.916 39.5765 12.9453 39.7287C12.9746 39.8809 13.0452 40.021 13.157 40.1427C13.2688 40.2706 13.3865 40.3619 13.5103 40.4289C13.6335 40.4959 13.7512 40.5202 13.8571 40.5081V40.5019ZM28.454 33.1285C28.5126 33.1651 28.607 33.2138 28.7248 33.2686L30.7898 31.1375C30.7307 31.0096 30.6601 30.8818 30.5896 30.7539L28.3541 33.0676L28.4599 33.1285H28.454ZM34.5199 33.8957L35.2607 33.1346C35.3432 32.8667 35.4138 32.5927 35.4789 32.3187L35.2314 32.5745C35.0257 33.0128 34.7842 33.4573 34.5199 33.9018V33.8957ZM27.889 32.7997L30.2894 30.3155C30.2069 30.2059 30.119 30.1024 30.0306 29.9928L27.5243 32.5866L27.889 32.7997ZM26.3124 41.0682L26.9126 40.4472C26.7064 40.5019 26.4361 40.569 26.1594 40.6359L25.6595 41.1535C25.8771 41.1352 26.0948 41.1048 26.3124 41.0682ZM24.3298 41.2022C24.4178 41.2022 24.5003 41.2022 24.5887 41.2022C24.6946 41.2022 24.8004 41.2022 24.9003 41.2022L25.2416 40.849C25.018 40.8977 24.865 40.9282 24.865 40.9282L25.0826 40.4167L24.3239 41.2022H24.3298ZM31.078 32.8911L30.5309 33.4573C30.8604 33.2625 31.0134 33.0433 31.078 32.8911ZM29.6837 33.5974L31.0894 32.1422C31.0661 31.9777 31.0308 31.8195 30.9836 31.6611L29.2365 33.4695C29.3836 33.5182 29.5367 33.5669 29.6892 33.5913L29.6837 33.5974ZM15.4749 36.3555L23.188 28.3732C23.1294 28.2636 23.0648 28.1358 22.9883 27.9896L15.2458 36.0024C15.3224 36.1181 15.3989 36.2398 15.4749 36.3495V36.3555ZM14.1279 33.7678L21.9468 25.6759C21.9056 25.5602 21.8643 25.4506 21.829 25.3411C21.7997 25.3288 21.7644 25.3167 21.7351 25.3045L13.9629 33.3233C14.0101 33.4695 14.0633 33.6095 14.1159 33.7557L14.1279 33.7678ZM16.0399 37.0984L23.6412 29.2317L23.4414 28.8482L15.781 36.7757C15.8635 36.8853 15.9519 36.9948 16.0399 37.0984ZM18.0403 39.0102L28.2244 28.4463C28.1066 28.3671 27.9948 28.2941 27.8771 28.221L17.699 38.7484C17.8048 38.8336 17.9166 38.9189 18.0224 38.9981L18.0403 39.0102ZM24.6474 28.9334L16.3753 37.4941C16.4697 37.5977 16.5576 37.6951 16.6575 37.7986L26.5946 27.4782C26.4714 27.4112 26.3417 27.3442 26.2125 27.2833L25.4006 28.1236C25.1417 28.5985 24.9003 28.8055 24.6295 28.9212L24.6474 28.9334ZM18.811 39.5399L28.9891 29.0064C28.8833 28.9212 28.7715 28.836 28.6597 28.7568L18.4463 39.3025C18.564 39.3816 18.6758 39.4547 18.7936 39.5338L18.811 39.5399ZM19.6408 40.0088L26.7596 32.6414V32.1361L27.0711 32.3187L29.6837 29.6153C29.5893 29.5179 29.4895 29.4266 29.3836 29.3352L19.2463 39.7957C19.37 39.8626 19.4992 39.9296 19.6229 39.9966L19.6408 40.0088ZM17.3223 38.4257L27.4244 27.947C27.3007 27.8739 27.1829 27.807 27.0597 27.7339L17.0048 38.1395C17.1047 38.237 17.2051 38.3283 17.3049 38.4196L17.3223 38.4257ZM13.3806 29.2135L18.7285 23.6788C18.6107 23.5997 18.4935 23.5205 18.3876 23.4414L13.4158 28.5863C13.3985 28.7934 13.3865 29.0004 13.3806 29.2135ZM31.4367 37.7986L31.4248 37.8107C31.4248 37.8107 31.3895 37.8473 31.3483 37.8838L29.1188 40.1915C29.5247 40.0027 29.9247 39.7896 30.3014 39.5522L34.19 35.5275C34.4195 35.1317 34.6198 34.7237 34.8081 34.3037L31.4601 37.7681C31.4601 37.7681 31.4427 37.7864 31.4367 37.7986ZM13.5162 27.7461L17.9638 23.1369C17.846 23.0517 17.7402 22.9664 17.6403 22.8812L13.6514 27.0094C13.5982 27.2529 13.5515 27.4964 13.5162 27.7461ZM20.8348 24.8905L13.6807 32.2944C13.716 32.4527 13.7572 32.611 13.7984 32.7632L21.2348 25.0731C21.0996 25.0122 20.9645 24.9513 20.8407 24.8905H20.8348ZM20.0288 24.4764C20.0288 24.4764 19.9936 24.4582 19.9816 24.446L13.475 31.174C13.4983 31.3445 13.5217 31.515 13.5515 31.6855L20.3523 24.6469C20.2405 24.5861 20.1287 24.5313 20.0288 24.4704V24.4764ZM13.4099 30.5104L19.529 24.1781C19.4052 24.105 19.2875 24.032 19.1697 23.9589L13.3806 29.9502C13.3806 30.1389 13.3985 30.3277 13.4099 30.5104ZM13.9276 25.9925L17.2577 22.5463C17.1519 22.4489 17.052 22.3515 16.9636 22.2662L14.2809 25.0427C14.1512 25.3532 14.0394 25.6698 13.9336 25.9925H13.9276ZM25.7768 38.7484C25.7946 38.6936 25.9298 38.3892 26.1241 37.9873L23.1234 41.0926C23.2943 41.1169 23.4648 41.1352 23.6412 41.1474L25.6356 39.0833L25.7768 38.7484ZM15.0397 23.5144C15.4396 22.8507 15.8988 22.2236 16.4165 21.6573C16.4751 21.7304 16.5343 21.8096 16.6108 21.8948L15.0456 23.5144H15.0397ZM26.771 34.6629L21.035 40.5994C21.1761 40.6481 21.3232 40.6968 21.4703 40.7394L26.8595 35.1621C26.8242 34.9978 26.7949 34.8273 26.771 34.6629ZM27.9775 40.0453L27.177 40.8734C27.4418 40.8064 27.7066 40.7333 27.9655 40.6481L29.0244 39.5522C28.7069 39.7226 28.3541 39.8931 27.9775 40.0514V40.0453ZM27.1362 36.1546C27.089 36.0268 27.0478 35.8867 27.0065 35.7467L22.0352 40.8917C22.1883 40.9282 22.3468 40.9647 22.5058 40.9951L27.0359 36.3068C27.0711 36.2581 27.1064 36.2094 27.1362 36.1607V36.1546ZM22.1351 26.1874L14.3281 34.2793C14.3867 34.4133 14.4454 34.5472 14.5105 34.6812L22.3175 26.6014C22.2588 26.4674 22.1997 26.3274 22.1411 26.1935L22.1351 26.1874ZM26.7357 33.366L20.1053 40.228C20.2405 40.2889 20.3702 40.3437 20.5053 40.3985L26.7303 33.9566V33.366H26.7357ZM14.9517 35.5396L22.7294 27.4903C22.6708 27.3625 22.6057 27.2346 22.5411 27.0946L14.7515 35.1682C14.816 35.2961 14.8866 35.4179 14.9572 35.5457L14.9517 35.5396ZM28.1007 19.6785V19.7029C28.1007 19.7029 28.1479 19.7211 28.2423 19.7638C28.3362 19.8003 28.4713 19.8551 28.6363 19.9282C28.8008 19.9951 28.9836 20.0804 29.1834 20.1717C29.2833 20.2204 29.3836 20.2692 29.4895 20.3178C29.5893 20.3726 29.7011 20.4153 29.801 20.4762C29.9068 20.531 30.0132 20.5858 30.113 20.6405C30.2189 20.6953 30.3187 20.7501 30.4072 20.8049C30.5011 20.8597 30.5955 20.9145 30.6835 20.9694C30.7719 21.0241 30.8544 21.0667 30.925 21.1155C31.2191 21.3164 31.4134 21.4503 31.4134 21.4503L31.4308 21.4321C31.4308 21.4321 31.4193 21.4199 31.4015 21.3955C31.3836 21.3712 31.3543 21.3407 31.319 21.2981C31.2484 21.219 31.1426 21.1033 31.0074 20.9815C30.9423 20.9145 30.8663 20.8597 30.7779 20.7928C30.6954 20.7319 30.6074 20.6649 30.513 20.5979C30.4191 20.531 30.3247 20.464 30.2189 20.4092C30.113 20.3544 30.0132 20.2935 29.9068 20.2326C29.801 20.1778 29.6892 20.1352 29.5834 20.0804C29.4775 20.0317 29.3717 19.989 29.2659 19.9465C29.16 19.9038 29.0597 19.8733 28.9598 19.8429C28.9126 19.8247 28.8659 19.8125 28.8187 19.8003C28.7715 19.7881 28.7248 19.776 28.6835 19.7699C28.5951 19.7455 28.5186 19.7333 28.442 19.7151C28.3715 19.6968 28.3069 19.6907 28.2537 19.6846C28.201 19.6785 28.1598 19.6724 28.1305 19.6724C28.1007 19.6724 28.0893 19.6724 28.0893 19.6724L28.1007 19.6785ZM24.1177 23.1491C24.2946 23.5814 25.0533 23.9406 25.5358 24.1659C25.5532 24.1781 25.5944 24.1842 25.6595 24.1842C26.2478 24.1842 27.483 23.4048 28.1538 22.936C27.9481 22.8203 27.5889 22.729 26.9832 22.729C25.9184 22.729 24.6295 23.0273 24.1236 23.1552L24.1177 23.1491ZM25.6535 24.7078C26.6125 24.7078 28.4952 23.3257 28.7009 23.1674L28.9071 23.0091L28.7541 22.7959C28.4659 22.4002 27.883 22.2053 26.9713 22.2053C26.0595 22.2053 25.0826 22.3941 24.4357 22.5341C24.4824 22.455 24.5356 22.3698 24.5828 22.2845C24.6354 22.181 24.7005 22.0653 24.7472 21.9496C24.8004 21.8278 24.8476 21.7061 24.8943 21.5721C24.9355 21.4382 24.9768 21.3042 25.0001 21.1703C25.0299 21.0302 25.0473 20.8902 25.0473 20.7501C25.0473 20.6832 25.0473 20.6162 25.0473 20.5431C25.0473 20.5127 25.0473 20.4762 25.0473 20.4396L25.0354 20.3422C25.018 20.2143 24.9887 20.0865 24.9475 19.9769C24.9122 19.8673 24.865 19.7638 24.8123 19.6724C24.8004 19.6542 24.7885 19.6298 24.7765 19.6055C24.7651 19.5872 24.7472 19.5628 24.7358 19.5446C24.7119 19.5081 24.6886 19.4715 24.6593 19.435C24.6061 19.3741 24.5649 19.3132 24.5236 19.2706C24.4416 19.1854 24.4004 19.1366 24.4004 19.1366C24.4004 19.1366 24.4416 19.1914 24.5122 19.2828C24.5475 19.3315 24.5828 19.3924 24.624 19.4593C24.6474 19.4958 24.6647 19.5324 24.6826 19.575C24.6945 19.5933 24.7005 19.6176 24.7119 19.6359C24.7239 19.6603 24.7298 19.6785 24.7358 19.7029C24.7765 19.7942 24.8064 19.8916 24.8297 20.0012C24.8531 20.1108 24.8709 20.2265 24.8709 20.3483C24.8709 20.3787 24.8709 20.4092 24.8709 20.4396C24.8709 20.4701 24.8709 20.5005 24.8709 20.531C24.8709 20.5919 24.859 20.6527 24.8476 20.7197C24.8237 20.8476 24.8004 20.9694 24.7591 21.0911C24.7239 21.2129 24.6707 21.3346 24.618 21.4443C24.5649 21.5539 24.5062 21.6696 24.4471 21.7669C24.3885 21.8705 24.3239 21.9679 24.2588 22.0531C24.1942 22.1445 24.1296 22.2236 24.071 22.2967C23.9472 22.4428 23.8414 22.5585 23.7649 22.6376C23.7236 22.6742 23.6943 22.7046 23.6764 22.7229C23.659 22.7412 23.6471 22.7533 23.6471 22.7533C23.1766 23.283 24.4178 24.2451 25.3181 24.6226C25.412 24.6652 25.5239 24.6895 25.6476 24.6895L25.6535 24.7078ZM20.5526 19.7151C20.5526 19.4228 20.323 19.1792 20.0348 19.1792C19.7466 19.1792 19.517 19.4167 19.517 19.7151C19.517 20.0134 19.7466 20.2509 20.0348 20.2509C20.323 20.2509 20.5526 20.0134 20.5526 19.7151Z" fill="white"/>
</svg>
