<svg width="51" height="52" viewBox="0 0 51 52" fill="none" xmlns="http://www.w3.org/2000/svg">
<mask id="mask0_5_250" style="mask-type:luminance" maskUnits="userSpaceOnUse" x="0" y="0" width="51" height="52">
<path d="M50.231 0.078125H0.613312V51.3097H50.231V0.078125Z" fill="white"/>
</mask>
<g mask="url(#mask0_5_250)">
<path fill-rule="evenodd" clip-rule="evenodd" d="M25.4241 0.078125C39.1256 0.078125 50.2349 11.549 50.2349 25.696C50.2349 39.843 39.1256 51.3137 25.4241 51.3137C11.7226 51.3137 0.613312 39.8388 0.613312 25.696C0.613312 11.5532 11.7226 0.078125 25.4241 0.078125Z" fill="#DC6A02"/>
</g>
<path d="M14.3396 41.0977C14.2338 41.1116 14.121 41.0907 13.9948 41.0208C13.8691 40.958 13.7493 40.8601 13.6435 40.7344C13.5307 40.6087 13.4577 40.4689 13.4313 40.3083C13.4045 40.1546 13.4179 39.9939 13.4711 39.8403C13.5307 39.6796 13.6236 39.5399 13.7628 39.4002L13.9551 39.2115C14.1672 39.002 14.3863 38.8972 14.6114 38.8832C14.837 38.8832 15.0293 38.9671 15.2017 39.1626C15.3478 39.3303 15.4273 39.5049 15.4343 39.6865C15.4407 39.8682 15.3876 40.0358 15.2614 40.1965L15.1421 40.0568C15.235 39.9241 15.2817 39.7914 15.2748 39.6586C15.2683 39.5259 15.2087 39.3932 15.0959 39.2744C14.9632 39.1207 14.8042 39.0509 14.6249 39.0648C14.446 39.0788 14.2601 39.1696 14.0743 39.3582L13.8954 39.5329C13.7762 39.6446 13.6967 39.7704 13.6435 39.8961C13.5903 40.0288 13.5705 40.1546 13.5903 40.2803C13.6102 40.4061 13.6634 40.5179 13.7563 40.6226C13.8621 40.7414 13.9685 40.8252 14.0743 40.8741C14.1474 40.909 14.207 40.923 14.2601 40.9161L14.6581 40.5318L14.2736 40.0987L14.3794 39.9939L14.8837 40.5668L14.3332 41.0977H14.3396ZM16.0772 41.0767C16.0772 41.0767 16.031 41.0208 15.9977 40.9859C15.9182 40.9091 15.8318 40.8741 15.7324 40.8672C15.633 40.8672 15.5401 40.8951 15.4407 40.9649L14.7312 41.8102L14.605 41.6915L15.633 40.455L15.7592 40.5738L15.5997 40.7693C15.792 40.6855 15.958 40.7135 16.1105 40.8532C16.1438 40.8881 16.1702 40.9161 16.1836 40.944L16.0772 41.0627V41.0767ZM15.8189 41.6984C15.9048 41.5727 16.0112 41.4749 16.1304 41.412C16.2497 41.3492 16.3694 41.3212 16.4951 41.3282C16.6213 41.3352 16.7406 41.3841 16.8469 41.4679C17.0124 41.6006 17.1053 41.7613 17.1252 41.9639C17.145 42.1664 17.0789 42.369 16.9393 42.5786L16.9195 42.6066C16.8335 42.7393 16.7272 42.8371 16.6079 42.8999C16.4887 42.9628 16.3694 42.9978 16.2432 42.9838C16.117 42.9698 16.0042 42.9279 15.8914 42.8441C15.7259 42.7183 15.633 42.5507 15.6132 42.3481C15.5933 42.1385 15.6594 41.9359 15.799 41.7333L15.8189 41.7054V41.6984ZM15.9316 41.8451C15.8189 42.0058 15.7722 42.1664 15.7791 42.3271C15.7856 42.4878 15.8517 42.6205 15.9779 42.7183C16.1041 42.8161 16.2432 42.8441 16.3893 42.8022C16.5349 42.7602 16.6675 42.6555 16.7868 42.4878L16.8067 42.4599C16.8797 42.3551 16.9195 42.2503 16.9463 42.1385C16.9662 42.0267 16.9662 41.922 16.9329 41.8242C16.8996 41.7264 16.8469 41.6496 16.7604 41.5867C16.6342 41.4889 16.5016 41.4679 16.349 41.5098C16.2034 41.5517 16.0708 41.6565 15.9515 41.8242L15.9316 41.8521V41.8451ZM17.8615 43.871C17.6956 43.9548 17.5167 43.9338 17.3175 43.8151C17.1719 43.7312 17.0854 43.6195 17.0591 43.4868C17.0322 43.354 17.0591 43.2003 17.1585 43.0257L17.6623 42.0966L17.8084 42.1874L17.3175 43.0956C17.1719 43.368 17.1982 43.5636 17.4104 43.6894C17.6295 43.8221 17.8148 43.8081 17.9743 43.6544L18.5313 42.6205L18.6839 42.7113L17.9077 44.1364L17.7617 44.0526L17.8546 43.871H17.8615ZM19.8973 44.2063C19.7979 44.4438 19.6722 44.6045 19.5196 44.6953C19.3601 44.7861 19.2011 44.8 19.0352 44.7232C18.8364 44.6324 18.7172 44.4927 18.6769 44.3041L18.3589 45.0725L18.1994 45.0026L19.0551 42.9139L19.2011 42.9838L19.1216 43.2003C19.294 43.0886 19.4729 43.0746 19.6722 43.1654C19.8446 43.2422 19.9504 43.375 19.9902 43.5566C20.0299 43.7383 20.0036 43.9478 19.9042 44.1923V44.2203L19.8973 44.2063ZM19.7383 44.1015C19.8178 43.9059 19.8446 43.7383 19.8113 43.5915C19.778 43.4448 19.6985 43.34 19.5658 43.2842C19.4729 43.2422 19.3735 43.2283 19.2871 43.2422C19.1947 43.2562 19.1147 43.3051 19.0421 43.3819L18.7435 44.1085C18.7435 44.2133 18.7768 44.3041 18.823 44.3809C18.8762 44.4577 18.9492 44.5206 19.0421 44.5626C19.1743 44.6254 19.3005 44.6184 19.4198 44.5346C19.5395 44.4577 19.6453 44.3111 19.7318 44.0945L19.7383 44.1015ZM20.9323 44.5346C20.9651 44.3809 21.0316 44.2552 21.1111 44.1434C21.1971 44.0386 21.297 43.9618 21.4162 43.9199C21.5355 43.878 21.6617 43.878 21.7874 43.9129C21.9866 43.9618 22.1322 44.0806 22.2252 44.2622C22.3116 44.4438 22.3315 44.6534 22.2719 44.9048V44.9398C22.2252 45.0935 22.1655 45.2262 22.0796 45.3309C21.9931 45.4358 21.8937 45.5126 21.7745 45.5545C21.6547 45.5964 21.529 45.5964 21.3964 45.5615C21.1971 45.5056 21.0515 45.3938 20.9586 45.2122C20.8657 45.0306 20.8523 44.821 20.9124 44.5695V44.5346H20.9323ZM21.0977 44.6254C21.0515 44.814 21.0649 44.9817 21.1246 45.1284C21.1906 45.2751 21.297 45.3659 21.4495 45.4078C21.6021 45.4497 21.7347 45.4148 21.8604 45.324C21.9866 45.2262 22.0661 45.0795 22.1193 44.8769V44.842C22.1526 44.7232 22.1591 44.6045 22.1392 44.4927C22.1193 44.3809 22.0796 44.2831 22.013 44.2133C21.9469 44.1364 21.8674 44.0875 21.7675 44.0596C21.6219 44.0246 21.4823 44.0526 21.3631 44.1504C21.2373 44.2482 21.1574 44.3949 21.1111 44.5974V44.6324L21.0977 44.6254ZM22.6828 45.806L22.8949 44.332L22.643 44.2901L22.6629 44.1434L22.9218 44.1853L22.9481 43.9897C22.9749 43.8221 23.0346 43.7033 23.1275 43.6265C23.2199 43.5496 23.3397 43.5217 23.4852 43.5496C23.5518 43.5566 23.6115 43.5776 23.6646 43.6055L23.6313 43.7522C23.5851 43.7312 23.532 43.7173 23.4788 43.7103C23.3859 43.6963 23.3064 43.7103 23.2467 43.7662C23.1871 43.8221 23.1474 43.8989 23.134 44.0177L23.1076 44.2203L23.4723 44.2761L23.4524 44.4228L23.0808 44.36L22.8622 45.8339L22.6897 45.806H22.6828ZM24.9908 45.8968C25.11 45.8968 25.2099 45.8619 25.2959 45.792C25.3754 45.7221 25.4221 45.6313 25.4355 45.5196H25.601C25.5945 45.6244 25.5612 45.7152 25.5081 45.792C25.4484 45.8759 25.3754 45.9387 25.283 45.9806C25.19 46.0225 25.0971 46.0435 24.9908 46.0435C24.7851 46.0435 24.6261 45.9597 24.5068 45.8129C24.3876 45.6593 24.3344 45.4567 24.3344 45.2052V45.1493C24.3344 44.9886 24.3677 44.842 24.4204 44.7232C24.4735 44.5974 24.553 44.5066 24.6594 44.4368C24.7587 44.3739 24.878 44.339 25.0107 44.346C25.1831 44.346 25.3227 44.4019 25.4285 44.5137C25.5413 44.6254 25.5945 44.7651 25.601 44.9398H25.4355C25.4355 44.807 25.3888 44.7023 25.3093 44.6184C25.2298 44.5416 25.1304 44.4997 25.0042 44.4927C24.8517 44.4927 24.7255 44.5486 24.6395 44.6673C24.553 44.7861 24.5068 44.9467 24.5004 45.1633V45.2192C24.5004 45.4288 24.5332 45.5964 24.6196 45.7152C24.7056 45.8339 24.8253 45.8968 24.9843 45.8968H24.9908ZM25.8996 45.1773C25.8862 45.0166 25.8996 44.8769 25.9528 44.7442C25.999 44.6115 26.072 44.5066 26.1714 44.4298C26.2708 44.353 26.3905 44.3041 26.5232 44.2901C26.7284 44.2691 26.9008 44.332 27.0404 44.4718C27.1796 44.6115 27.2655 44.807 27.2854 45.0585V45.1004C27.2988 45.2541 27.2854 45.4008 27.2392 45.5335C27.193 45.6663 27.1199 45.771 27.0206 45.8479C26.9207 45.9247 26.8014 45.9736 26.6688 45.9876C26.4631 46.0086 26.2906 45.9457 26.1451 45.806C26.0054 45.6663 25.9195 45.4707 25.8996 45.2192V45.1843V45.1773ZM26.072 45.2122C26.0919 45.4078 26.1515 45.5615 26.2578 45.6802C26.3637 45.799 26.4963 45.8479 26.6553 45.8339C26.8079 45.82 26.9341 45.7431 27.0206 45.6104C27.1065 45.4777 27.1398 45.31 27.1199 45.1004V45.0655C27.1065 44.9398 27.0732 44.828 27.0206 44.7302C26.9674 44.6324 26.9008 44.5555 26.8148 44.5066C26.7284 44.4577 26.6355 44.4368 26.5361 44.4438C26.3836 44.4577 26.2643 44.5346 26.1778 44.6673C26.0919 44.8001 26.0586 44.9747 26.0785 45.1773V45.2122H26.072ZM27.6904 44.1923L27.7564 44.4508C27.7897 44.339 27.8429 44.2482 27.9154 44.1783C27.9885 44.1085 28.0749 44.0596 28.1808 44.0386C28.4198 43.9757 28.5922 44.0386 28.705 44.2342C28.7383 44.1224 28.7909 44.0246 28.8709 43.9478C28.9504 43.871 29.0434 43.8221 29.1557 43.7871C29.4806 43.7033 29.6863 43.85 29.7792 44.2203L30.0247 45.289L29.8523 45.3309L29.6133 44.2761C29.5805 44.1364 29.5273 44.0386 29.4543 43.9827C29.3812 43.9268 29.2819 43.9199 29.1492 43.9478C29.0299 43.9827 28.937 44.0456 28.8709 44.1504C28.8044 44.2482 28.7845 44.36 28.7979 44.4787L29.0364 45.5335L28.8709 45.5755L28.6255 44.5066C28.5922 44.3739 28.539 44.2761 28.466 44.2272C28.3929 44.1714 28.2871 44.1643 28.1679 44.1993C28.0615 44.2272 27.982 44.2831 27.9154 44.3669C27.8558 44.4508 27.8161 44.5555 27.8096 44.6883L28.0615 45.785L27.8956 45.827L27.5309 44.2272L27.6904 44.1853V44.1923ZM31.4905 43.8151C31.5834 44.0526 31.6033 44.2622 31.5566 44.4438C31.5104 44.6254 31.404 44.7512 31.2386 44.821C31.0393 44.9048 30.8605 44.8978 30.701 44.7931L30.9996 45.5685L30.8406 45.6383L30.0312 43.5287L30.1772 43.4658L30.2702 43.6754C30.3099 43.4658 30.4292 43.3261 30.6284 43.2353C30.8008 43.1654 30.9663 43.1724 31.1124 43.2702C31.2649 43.368 31.3842 43.5357 31.4835 43.7802V43.8011L31.4905 43.8151ZM31.3245 43.85C31.2515 43.6544 31.1521 43.5217 31.0329 43.4379C30.9136 43.354 30.7874 43.3471 30.6483 43.4029C30.5484 43.4448 30.4759 43.5007 30.4227 43.5845C30.3695 43.6614 30.3432 43.7592 30.3432 43.871L30.6215 44.6045C30.6945 44.6743 30.774 44.7232 30.8605 44.7372C30.9464 44.7512 31.0393 44.7372 31.1387 44.7023C31.2714 44.6464 31.3578 44.5416 31.3911 44.4019C31.4239 44.2552 31.3976 44.0735 31.3181 43.864L31.3245 43.85ZM33.1287 43.8291C33.089 43.7941 33.0423 43.7312 32.9961 43.6404C32.9826 43.7452 32.9429 43.836 32.8763 43.9268C32.8167 44.0107 32.7372 44.0806 32.6443 44.1364C32.5116 44.2133 32.3859 44.2342 32.2661 44.1993C32.1469 44.1714 32.054 44.0945 31.9943 43.9757C31.9213 43.836 31.9213 43.6894 31.9943 43.5496C32.0609 43.4029 32.2001 43.2772 32.3988 43.1654L32.6776 43.0117L32.5911 42.8441C32.5384 42.7393 32.4654 42.6764 32.3789 42.6485C32.286 42.6205 32.1866 42.6485 32.0674 42.7113C31.961 42.7742 31.8885 42.851 31.8488 42.9488C31.8085 43.0467 31.8085 43.1375 31.8488 43.2143L31.6962 43.2981C31.6361 43.1794 31.6361 43.0536 31.6962 42.9139C31.7558 42.7742 31.8552 42.6625 32.0078 42.5716C32.1603 42.4878 32.2994 42.4599 32.4321 42.4878C32.5648 42.5157 32.6641 42.6066 32.7436 42.7463L33.0954 43.4309C33.1685 43.5706 33.2346 43.6684 33.3011 43.7173V43.7312L33.1486 43.8221L33.1287 43.8291ZM32.5911 43.9827C32.691 43.9268 32.7705 43.85 32.8236 43.7522C32.8763 43.6544 32.9031 43.5496 32.8897 43.4448L32.7307 43.1305L32.4589 43.2842C32.3064 43.368 32.2065 43.4658 32.1469 43.5706C32.0873 43.6754 32.0873 43.7802 32.1404 43.878C32.1802 43.9618 32.2463 44.0107 32.3263 44.0316C32.4122 44.0526 32.4987 44.0316 32.5911 43.9827ZM33.0159 41.9778L33.1749 42.2084C33.1749 42.0896 33.1884 41.9848 33.2281 41.887C33.2743 41.7893 33.3409 41.7124 33.4269 41.6496C33.5665 41.5517 33.6922 41.5168 33.8184 41.5517C33.9376 41.5867 34.0504 41.6844 34.1632 41.8451L34.7466 42.7323L34.6074 42.8371L34.0241 41.9499C33.9441 41.8312 33.8646 41.7613 33.7717 41.7333C33.6857 41.7124 33.5928 41.7333 33.4865 41.8102C33.4005 41.8731 33.3409 41.9639 33.3141 42.0687C33.2813 42.1805 33.2877 42.2922 33.3141 42.411L33.9242 43.34L33.7851 43.4379L32.8962 42.0896L33.0289 41.9918L33.0159 41.9778ZM33.8845 40.7274C33.8845 40.7274 33.8512 40.6715 33.8581 40.6366C33.8581 40.6017 33.8716 40.5737 33.9044 40.5528C33.9312 40.5249 33.964 40.5178 33.9973 40.5249C34.0306 40.5249 34.0504 40.5458 34.0768 40.5738C34.0966 40.6017 34.1036 40.6296 34.1036 40.6576C34.1036 40.6925 34.0837 40.7204 34.0569 40.7414C34.0306 40.7623 33.9973 40.7763 33.9709 40.7693C33.9376 40.7693 33.9113 40.7484 33.8914 40.7204L33.8845 40.7274ZM35.3105 42.2363L35.1779 42.3481L34.1965 41.0697L34.3287 40.9509L35.3105 42.2293V42.2363ZM36.2059 41.44C36.1065 41.5378 36.0002 41.6006 35.874 41.6216C35.7547 41.6496 35.629 41.6425 35.5093 41.5936C35.3836 41.5447 35.2772 41.4679 35.1714 41.3561L35.1317 41.3073C35.0253 41.1885 34.9592 41.0697 34.919 40.937C34.8792 40.8043 34.8728 40.6715 34.8991 40.5458C34.9259 40.42 34.9856 40.3083 35.0715 40.2245C35.2112 40.0848 35.3637 40.0288 35.5361 40.0498C35.7085 40.0708 35.8675 40.1616 36.0201 40.3362L36.0867 40.4131L35.2772 41.2164L35.2971 41.2443C35.4164 41.3771 35.556 41.4539 35.715 41.4749C35.8675 41.4889 36.0002 41.447 36.113 41.3352C36.1791 41.2723 36.2258 41.1955 36.2521 41.1186C36.279 41.0418 36.2919 40.9509 36.279 40.8532L36.4116 40.8392C36.4444 41.0697 36.3719 41.2723 36.1989 41.447L36.2059 41.44ZM35.1714 40.3362C35.0785 40.427 35.0318 40.5458 35.0318 40.6855C35.0318 40.8252 35.0785 40.958 35.1779 41.0977L35.8611 40.42L35.8477 40.4061C35.7418 40.2943 35.629 40.2314 35.5028 40.2175C35.3766 40.2035 35.2708 40.2454 35.1714 40.3362ZM37.2404 39.6097C37.1743 39.5468 37.1013 39.5329 37.0148 39.5468C36.9289 39.5678 36.829 39.6237 36.7232 39.7145C36.6104 39.8053 36.5175 39.8682 36.438 39.9031C36.3584 39.938 36.2854 39.952 36.2193 39.945C36.1527 39.938 36.0931 39.9031 36.0335 39.8542C35.9406 39.7704 35.8944 39.6586 35.9008 39.5189C35.9008 39.3792 35.9605 39.2465 36.0668 39.1207C36.1791 38.981 36.3053 38.8972 36.438 38.8762C36.5706 38.8483 36.6899 38.8902 36.7962 38.981L36.6834 39.1207C36.6104 39.0579 36.5309 39.0369 36.438 39.0579C36.3386 39.0788 36.2591 39.1347 36.1791 39.2255C36.1065 39.3163 36.0668 39.4071 36.0598 39.4979C36.0534 39.5888 36.0797 39.6586 36.1393 39.7145C36.199 39.7704 36.2655 39.7844 36.3316 39.7704C36.3982 39.7564 36.4976 39.7006 36.6238 39.6027C36.7495 39.5049 36.8494 39.4421 36.9289 39.4071C37.0084 39.3722 37.0814 39.3652 37.1475 39.3722C37.2141 39.3792 37.2802 39.4141 37.3398 39.47C37.4392 39.5608 37.4859 39.6726 37.4725 39.8123C37.466 39.952 37.3994 40.0917 37.2936 40.2245C37.1743 40.3711 37.0417 40.455 36.902 40.4899C36.7629 40.5178 36.6437 40.4899 36.5373 40.3921L36.6501 40.2524C36.7296 40.3153 36.8161 40.3362 36.909 40.3083C37.0019 40.2873 37.0943 40.2245 37.1743 40.1197C37.2538 40.0219 37.2936 39.9311 37.307 39.8333C37.3135 39.7354 37.2866 39.6656 37.227 39.6097H37.2404Z" fill="white"/>
<path fill-rule="evenodd" clip-rule="evenodd" d="M18.6928 20.9375L15.556 24.5163C16.3565 22.9835 17.4601 21.6647 18.7639 20.6523L18.6928 20.9375Z" fill="white"/>
<path fill-rule="evenodd" clip-rule="evenodd" d="M18.0762 22.7091L14.2199 26.7241C14.2999 26.4481 14.3928 26.1787 14.4997 25.9159L18.116 22.1374L18.2292 22.0322C18.1691 22.2688 18.116 22.4922 18.0827 22.7091" fill="white"/>
<path fill-rule="evenodd" clip-rule="evenodd" d="M17.9619 24.2468L13.9526 28.6558C13.9784 28.4351 14.0107 28.2143 14.05 27.9935L17.9619 23.688C17.9619 23.8674 17.9619 24.0468 17.9619 24.2468Z" fill="white"/>
<path fill-rule="evenodd" clip-rule="evenodd" d="M18.2292 25.5053L13.9526 29.7602V29.7476C13.9526 29.5766 13.9526 29.4057 13.9655 29.2347L18.1567 25.0684C18.1766 25.214 18.1964 25.3596 18.2292 25.5053Z" fill="white"/>
<path fill-rule="evenodd" clip-rule="evenodd" d="M18.7639 26.5832L14.0013 31.4157C13.9804 31.2513 13.9665 31.0799 13.9526 30.9154L18.6312 26.1719C18.6729 26.3158 18.7152 26.4529 18.7639 26.5832Z" fill="white"/>
<path fill-rule="evenodd" clip-rule="evenodd" d="M19.0248 27.3629L14.3059 32.5198C14.2726 32.3663 14.2462 32.2128 14.2199 32.0593L18.8528 27L18.8792 27.0628C18.9189 27.1605 18.9716 27.2651 19.0312 27.3699" fill="white"/>
<path fill-rule="evenodd" clip-rule="evenodd" d="M19.5659 28.4125L14.3516 33.6238C14.3029 33.4897 14.2616 33.3556 14.2199 33.2147L19.3298 28.104C19.4059 28.2046 19.4824 28.3119 19.5589 28.4125" fill="white"/>
<path fill-rule="evenodd" clip-rule="evenodd" d="M20.1005 29.2027L14.9056 34.728C14.8529 34.5995 14.8003 34.4778 14.7545 34.3493L19.8441 28.9321C19.9296 29.0268 20.015 29.1215 20.1005 29.2027Z" fill="white"/>
<path fill-rule="evenodd" clip-rule="evenodd" d="M20.9025 29.7143L15.2062 35.5558C15.1446 35.4405 15.083 35.3186 15.0219 35.2033L20.5949 29.4839C20.6973 29.5652 20.7996 29.6397 20.9025 29.7143Z" fill="white"/>
<path fill-rule="evenodd" clip-rule="evenodd" d="M21.4366 29.9561L16.0141 36.1081C15.9466 36 15.8849 35.892 15.8233 35.7839L21.129 29.7603C21.209 29.8143 21.289 29.8683 21.3755 29.9223L21.4366 29.9561Z" fill="white"/>
<path fill-rule="evenodd" clip-rule="evenodd" d="M22.7668 31.0252L16.5846 37.2121C16.5046 37.1155 16.4315 37.019 16.358 36.9224L22.414 30.8643C22.5337 30.9158 22.647 30.9737 22.7732 31.0252" fill="white"/>
<path fill-rule="evenodd" clip-rule="evenodd" d="M23.5752 31.286L17.1426 38.316C17.0571 38.2188 16.9781 38.1284 16.8926 38.0312L23.1941 31.1401C23.3188 31.1888 23.444 31.2374 23.5752 31.286Z" fill="white"/>
<path fill-rule="evenodd" clip-rule="evenodd" d="M24.3772 31.526L17.6926 38.8679C17.6022 38.7854 17.5112 38.696 17.4273 38.6066L23.9692 31.416C24.1054 31.4573 24.2346 31.4916 24.3707 31.526" fill="white"/>
<path fill-rule="evenodd" clip-rule="evenodd" d="M25.7068 31.7875L18.2635 39.4202C18.1607 39.3454 18.0578 39.2638 17.9619 39.1823L25.2681 31.6924C25.4191 31.7263 25.5627 31.7535 25.7138 31.7807" fill="white"/>
<path fill-rule="evenodd" clip-rule="evenodd" d="M26.7826 32.0284L19.3448 39.9716C19.2399 39.9041 19.1356 39.8367 19.0312 39.7625L26.3324 31.9678C26.4169 31.9812 26.5018 31.9947 26.5868 32.0015C26.6524 32.0082 26.7175 32.0217 26.7761 32.0284" fill="white"/>
<path fill-rule="evenodd" clip-rule="evenodd" d="M27.8519 32.0756L20.1671 40.2476C20.0558 40.1869 19.9445 40.1263 19.8332 40.0657L27.4459 31.9678C27.5443 31.9947 27.6556 32.0284 27.7734 32.0553L27.8519 32.0756Z" fill="white"/>
<path fill-rule="evenodd" clip-rule="evenodd" d="M28.9211 32.388L21.0018 40.8C20.8751 40.7452 20.7549 40.6972 20.6351 40.6424L28.541 32.2441C28.6478 32.2784 28.7413 32.3127 28.8213 32.3469L28.8744 32.3675L28.9211 32.388Z" fill="white"/>
<path fill-rule="evenodd" clip-rule="evenodd" d="M29.9904 32.9351L21.8416 41.0757C21.7044 41.0359 21.5673 40.9961 21.4366 40.9497L29.5924 32.7959C29.7231 32.8423 29.8602 32.8887 29.9904 32.9351Z" fill="white"/>
<path fill-rule="evenodd" clip-rule="evenodd" d="M30.7859 33.2333L23.1891 41.3521C23.046 41.3252 22.9099 41.2916 22.7732 41.2581L30.4351 33.0723C30.5584 33.1259 30.6756 33.1729 30.7924 33.2333" fill="white"/>
<path fill-rule="evenodd" clip-rule="evenodd" d="M31.5944 33.563L24.2962 41.9039C24.1471 41.8896 23.9916 41.8682 23.8425 41.8467L31.2769 33.3481L31.3092 33.3696C31.4195 33.4341 31.5099 33.4985 31.5944 33.563Z" fill="white"/>
<path fill-rule="evenodd" clip-rule="evenodd" d="M32.129 34.2585L25.4196 41.9037C25.3416 41.9037 25.2636 41.9037 25.1786 41.9037C25.0877 41.9037 25.0027 41.9037 24.9118 41.9037L31.9397 33.8999C32.0505 34.0433 32.0962 34.1581 32.129 34.2585Z" fill="white"/>
<path fill-rule="evenodd" clip-rule="evenodd" d="M32.9305 35.3098L26.8521 41.8255C26.6529 41.854 26.4541 41.8824 26.2484 41.9038L32.6835 35.0039C32.7178 35.0537 32.7591 35.1106 32.8003 35.1675L32.924 35.3169L32.9305 35.3098Z" fill="white"/>
<path fill-rule="evenodd" clip-rule="evenodd" d="M34.7953 34.728L28.5495 41.1619C28.3194 41.2339 28.0888 41.2994 27.8518 41.3519C29.9581 39.1898 32.0704 37.0277 34.1766 34.8721C34.4002 34.8787 34.6109 34.8263 34.8017 34.728" fill="white"/>
<path fill-rule="evenodd" clip-rule="evenodd" d="M35.3592 35.7433L31.0344 40.0099C30.6975 40.1962 30.3472 40.3697 29.9904 40.5239L35.871 34.728C35.7229 35.075 35.5545 35.4156 35.3657 35.7433" fill="white"/>
<path fill-rule="evenodd" clip-rule="evenodd" d="M33.1456 32.5529C33.2246 32.12 33.087 31.5182 33.008 31.0989C32.9623 30.8486 32.916 30.6458 32.8375 30.4158L32.6537 29.9628C32.4505 29.5029 32.1881 29.0634 31.8602 28.6779C31.2301 27.934 30.4759 27.3794 29.6361 26.879C29.1899 26.6153 28.7765 26.338 28.3303 26.0743C27.7793 25.7497 26.4278 24.7691 26.238 24.1672C26.4606 24.2957 26.638 24.5324 26.8283 24.7015L27.4712 25.2289C27.7336 25.4115 27.9239 25.5333 28.2126 25.7023C28.9405 26.1283 29.8592 26.5679 30.535 27.0413C32.5489 28.4547 33.4805 30.0101 33.5461 32.5055L33.5198 33.8581C33.4671 34.0406 33.3623 34.115 33.2375 34.1759C32.8703 33.7363 33.2703 33.2494 31.7747 32.3703C30.9549 31.8901 30.0098 31.5723 29.1179 31.2544C28.7109 31.0718 28.1206 30.9366 27.6416 30.8013C27.1035 30.6458 26.7035 30.6458 26.1982 30.5444C25.2079 30.3414 24.2236 30.1386 23.2919 29.7396C22.4259 29.3676 21.7506 28.9822 21.0351 28.3938C20.5104 27.961 19.8873 27.1157 19.625 26.5273C19.3229 25.8511 19.0868 25.0193 19.0476 24.2078C18.9949 23.0581 19.0605 22.436 19.3557 21.3472C19.6379 21.5974 21.1141 22.3819 21.4421 22.5104C21.6324 21.8138 21.4421 21.4216 22.0065 20.0488C22.3802 19.129 22.8199 18.3784 23.3317 17.6007C23.8957 16.7553 24.6171 16.0521 25.3719 15.4029C25.4767 15.3149 25.6278 15.1459 25.7719 15.1323C25.752 15.6598 25.7128 16.1399 25.8573 16.6404C26.2638 18.0538 27.3266 19.0546 28.4814 19.8594C30.141 21.0158 32.0962 21.9896 33.6181 23.2204C34.3595 23.8155 34.9826 24.4851 35.5078 25.2763C35.7632 25.6685 35.9535 26.0675 36.1637 26.4868C36.2556 26.6761 36.3406 26.9196 36.4061 27.1292C36.4787 27.3592 36.5443 27.6094 36.5835 27.8393C36.905 29.5705 36.3276 31.0921 35.3632 32.4852C35.1401 32.8031 34.7073 33.3914 34.3004 33.3711C34.2219 33.1209 34.3466 32.8639 34.4579 32.6678C34.5761 32.4514 34.7267 32.2485 34.8449 32.0457C35.1073 31.5993 35.3831 31.1868 35.5927 30.6931C35.8158 30.1724 35.9604 29.5773 35.9997 29.043C36.0588 28.2045 35.7766 27.1022 35.3761 26.3786L34.8907 25.54C33.4934 23.4301 31.1382 22.2737 29.1109 20.9346C28.9012 20.7926 28.7373 20.6574 28.5341 20.5222C28.3303 20.3801 28.147 20.2314 27.9502 20.0758C27.1299 19.4334 26.7363 19.0006 26.1326 18.1011C26.0735 18.0132 26.0213 17.9118 25.9821 17.8103C25.8509 17.479 25.7326 17.2085 25.6343 16.8568C25.5423 16.5119 25.5031 15.7883 25.6343 15.3285C25.3192 15.5449 24.4929 16.5728 24.2698 16.8771C23.4758 17.9524 22.879 18.9059 22.413 20.3531C22.2425 20.8738 22.0721 21.4824 22.0324 22.037C22.0065 22.4089 21.9996 22.7944 22.0324 23.1596C22.1506 24.316 22.249 24.999 22.7081 26.0472L23.4693 27.3524C24.3155 28.4885 25.6208 29.415 27.1169 29.8613C27.3137 29.9154 27.3202 29.956 27.4971 30.0168C28.3174 30.2806 29.741 30.6864 30.4694 31.011C31.3156 31.3897 32.1354 31.7481 32.8505 32.3162C32.9623 32.4041 33.0343 32.5055 33.1262 32.5596M19.3884 21.7665C19.3492 21.9355 19.3691 22.2466 19.3691 22.4292C19.3691 23.6668 19.4282 24.4309 19.8083 25.5738C19.9922 26.1351 20.104 26.2433 20.34 26.6423C21.0351 27.8122 22.0652 28.4682 23.2989 29.016C23.7516 29.2189 24.2435 29.3541 24.801 29.5164L24.0795 28.9348C23.8236 28.7184 23.6333 28.5562 23.4102 28.2924C23.2134 28.0557 23.0296 27.8393 22.8527 27.5823C22.3146 26.7979 22.013 26.0878 21.7635 25.1545C21.6716 24.8097 21.4291 23.6329 21.5012 23.2475C20.6088 22.9905 20.34 22.7403 19.7755 22.2196C19.5986 22.0505 19.546 21.9152 19.382 21.7597L19.3884 21.7665Z" fill="white"/>
<path d="M15.2301 7.95654L16.5344 11.2894L17.8322 7.95654H18.8489V12.308H18.0663V10.8768L18.1468 8.95575L16.8156 12.308H16.2536L14.922 8.95575L15.0025 10.8704V12.3015H14.2199V7.95654H15.2365H15.2301ZM24.3414 10.1419L24.9769 9.07821H25.8131L24.7831 10.6705L25.8464 12.3144H25.0171L24.3478 11.2056L23.679 12.3144H22.8428L23.9066 10.6705L22.883 9.07821H23.7123L24.3414 10.1419ZM27.1309 12.3144H26.3751V9.0718H27.1309V12.308V12.3144ZM32.6567 12.3144H31.9009V9.0718H32.6567V12.308V12.3144ZM22.3409 11.5666V10.1097C22.3345 9.768 22.2142 9.49726 21.9797 9.31031C21.7457 9.11689 21.4312 9.02665 21.0436 9.02665C20.7822 9.02665 20.5482 9.0718 20.341 9.15558C20.1333 9.24582 19.9663 9.36187 19.8461 9.5166C19.7254 9.67129 19.6652 9.8389 19.6652 10.013H20.421C20.421 9.88405 20.4747 9.78087 20.5884 9.69709C20.6953 9.61326 20.8359 9.57463 21.0098 9.57463C21.2105 9.57463 21.3576 9.62619 21.4515 9.7229C21.5519 9.82602 21.5986 9.95495 21.5986 10.1226V10.3353H21.137C20.6421 10.3353 20.2605 10.4256 19.9996 10.6125C19.7323 10.7995 19.5982 11.0637 19.5982 11.4054C19.5982 11.6762 19.7055 11.9083 19.9196 12.0952C20.1333 12.2822 20.4081 12.3724 20.7425 12.3724C21.0769 12.3724 21.3844 12.2499 21.6254 12.0114C21.6319 12.1532 21.6254 12.2435 21.6254 12.3144H22.3479V11.5666H22.3409ZM21.5852 11.4054C21.5181 11.5215 21.4177 11.6182 21.291 11.6891C21.1569 11.76 21.0232 11.7922 20.8692 11.7922C20.7087 11.7922 20.582 11.7535 20.4816 11.6697C20.3877 11.5859 20.334 11.4763 20.334 11.3345C20.334 11.1604 20.4011 11.0315 20.5417 10.9348C20.6818 10.8382 20.8895 10.793 21.1703 10.793H21.5787V11.4054H21.5852ZM26.3751 8.68496H27.1309V7.95654H26.3751V8.68496ZM31.9074 8.68496H32.6637V7.95654H31.9074V8.68496Z" fill="white"/>
<path d="M28.3164 11.6908H29.342C29.5248 11.6908 29.6555 11.6841 29.7271 11.6708C29.7927 11.6574 29.8513 11.644 29.9035 11.624C29.9556 11.6039 30.0014 11.5838 30.0406 11.5571C30.0799 11.5304 30.1191 11.497 30.1519 11.4636C30.1842 11.4235 30.217 11.3833 30.2433 11.3299C30.2692 11.2831 30.2891 11.223 30.302 11.1695C30.3149 11.1093 30.3214 11.0492 30.3214 10.9824C30.3214 10.9022 30.3149 10.8286 30.2955 10.7618C30.2756 10.6949 30.2498 10.6348 30.2105 10.5746C30.1713 10.5212 30.1256 10.4677 30.0734 10.4343C30.0212 10.3942 29.9621 10.3608 29.8906 10.3407C29.8185 10.314 29.7335 10.3006 29.6292 10.2872C29.5249 10.2739 29.4071 10.2672 29.2635 10.2672H28.3164V11.6908ZM28.3164 9.59216H29.1979C29.3286 9.59216 29.4334 9.59216 29.5249 9.57877C29.6163 9.5721 29.6814 9.55876 29.7335 9.54537C29.7991 9.52531 29.8578 9.49858 29.9099 9.46518C29.9556 9.43173 30.0014 9.39166 30.0342 9.34487C30.0669 9.29809 30.0928 9.24463 30.1062 9.19117C30.1256 9.13099 30.132 9.06414 30.132 8.99062C30.132 8.92382 30.1256 8.85697 30.1062 8.79679C30.0928 8.73666 30.0669 8.6832 30.0342 8.62974C30.0014 8.57623 29.9686 8.53616 29.9229 8.50271C29.8771 8.46931 29.8314 8.44259 29.7728 8.42253C29.7142 8.40247 29.6292 8.38913 29.5249 8.37574C29.42 8.36907 29.2829 8.3624 29.1264 8.3624H28.3164V9.59216ZM27.5845 12.299V7.68066H29.3092C29.4791 7.68066 29.6357 7.694 29.7728 7.71406C29.9164 7.74079 30.0406 7.77424 30.145 7.82098C30.2563 7.86777 30.3477 7.93462 30.4327 8.00814C30.5176 8.08166 30.5892 8.17524 30.6548 8.27549C30.7134 8.37574 30.7591 8.4827 30.7919 8.58295C30.8247 8.68987 30.8376 8.79679 30.8376 8.91043C30.8376 9.01068 30.8247 9.11765 30.7984 9.21118C30.772 9.31142 30.7328 9.405 30.6741 9.49191C30.622 9.58549 30.5499 9.66568 30.4719 9.7392C30.4262 9.77932 30.3805 9.81939 30.3278 9.85284C30.4063 9.88624 30.4848 9.92636 30.5499 9.97315C30.6612 10.0467 30.7526 10.1335 30.8312 10.2404C30.9092 10.3474 30.9683 10.4543 31.0006 10.5813C31.0398 10.7016 31.0597 10.8353 31.0597 10.9757C31.0597 11.0893 31.0463 11.1962 31.0269 11.3032C31.0006 11.4101 30.9683 11.5103 30.9226 11.6039C30.8769 11.6975 30.8247 11.7844 30.7656 11.8579C30.7069 11.9314 30.6413 11.9982 30.5763 12.0517C30.5042 12.1052 30.4327 12.152 30.3477 12.1921C30.2627 12.2322 30.1713 12.2656 30.0734 12.2923C29.9755 12.3191 29.8642 12.3391 29.74 12.3525C29.6163 12.3658 29.4856 12.3725 29.342 12.3725H27.5845V12.299Z" fill="white"/>
<path d="M33.6609 10.5648C33.6609 10.7718 33.6813 10.9443 33.729 11.0961C33.7702 11.241 33.8313 11.3652 33.9203 11.4618C34.0023 11.5584 34.0977 11.6274 34.207 11.6757C34.3093 11.724 34.4251 11.7447 34.5548 11.7447C34.6845 11.7447 34.7938 11.724 34.9031 11.6757C35.0055 11.6274 35.1009 11.5584 35.1828 11.4618C35.2648 11.3652 35.3259 11.241 35.3741 11.0961C35.4149 10.9443 35.4422 10.7649 35.4422 10.551C35.4422 10.3578 35.4218 10.1853 35.3741 10.0404C35.3329 9.89551 35.2648 9.77823 35.1828 9.68162C35.1009 9.58502 35.0055 9.51601 34.8961 9.46773C34.7938 9.41946 34.678 9.39873 34.5548 9.39873C34.4321 9.39873 34.3093 9.41946 34.207 9.46773C34.1046 9.51601 34.0092 9.58502 33.9203 9.68162C33.8383 9.77823 33.7772 9.89551 33.729 10.0473C33.6882 10.1991 33.6609 10.3716 33.6609 10.5786M32.9444 10.5786C32.9444 10.2681 32.9851 9.99212 33.0741 9.75755C33.1625 9.52294 33.2922 9.32285 33.4701 9.17104C33.6132 9.03996 33.7772 8.95023 33.961 8.88127C34.1389 8.81915 34.3367 8.78467 34.5483 8.78467C34.7804 8.78467 34.9915 8.82607 35.1828 8.90195C35.3741 8.97783 35.5446 9.09516 35.6946 9.25385C35.8447 9.41253 35.954 9.59194 36.029 9.81271C36.1041 10.0266 36.1384 10.2681 36.1384 10.5372C36.1384 10.7511 36.1244 10.9443 36.0906 11.1168C36.0564 11.2893 36.0087 11.4411 35.9406 11.5653C35.872 11.6964 35.79 11.8068 35.6946 11.9034C35.5992 12 35.483 12.0897 35.3602 12.1586C35.2375 12.2277 35.1009 12.2829 34.9642 12.3174C34.8281 12.3519 34.6845 12.3726 34.5344 12.3726C34.2954 12.3726 34.0842 12.3312 33.886 12.2553C33.6952 12.1794 33.5178 12.0621 33.3742 11.9034C33.2241 11.7447 33.1148 11.5584 33.0398 11.3376C32.9648 11.1168 32.9305 10.8615 32.9305 10.5786H32.9444Z" fill="white"/>
</svg>
