<svg width="106" height="20" viewBox="0 0 106 20" fill="none" xmlns="http://www.w3.org/2000/svg">
<path d="M104.51 13.8176C104.472 13.8176 104.445 13.7947 104.43 13.749L102.086 6.07751C102.071 6.05464 102.071 6.03177 102.086 6.00891C102.109 5.98604 102.139 5.97461 102.178 5.97461H103.527C103.572 5.97461 103.603 5.99748 103.618 6.04321L105.996 13.7033C106.011 13.7795 105.981 13.8176 105.905 13.8176H104.51ZM101.366 12.4456C101.305 12.6591 101.236 12.8763 101.16 13.0973C101.091 13.3184 101.027 13.5356 100.966 13.749C100.95 13.7947 100.92 13.8176 100.874 13.8176H99.4908C99.4527 13.8176 99.4222 13.8062 99.3994 13.7833C99.3841 13.7604 99.3841 13.7338 99.3994 13.7033L101.514 6.84351C101.53 6.79778 101.56 6.77491 101.606 6.77491C101.652 6.77491 101.682 6.79778 101.697 6.84351L102.395 9.0615L101.789 10.9479H102.886C102.932 10.9479 102.963 10.9708 102.978 11.0165L103.378 12.3313C103.393 12.3618 103.389 12.3885 103.367 12.4113C103.351 12.4342 103.325 12.4456 103.287 12.4456H101.366Z" fill="#303E48"/>
<path d="M97.0658 13.8174C97.0125 13.8174 96.9858 13.7869 96.9858 13.7259V10.1246L98.3235 8.22669C98.3539 8.18858 98.3882 8.17715 98.4264 8.1924C98.4721 8.20764 98.495 8.23813 98.495 8.28386V13.7259C98.495 13.7869 98.4645 13.8174 98.4035 13.8174H97.0658ZM92.5498 11.6909C92.5193 11.729 92.485 11.7404 92.4469 11.7252C92.4088 11.7099 92.3898 11.6794 92.3898 11.6337V6.06587C92.3898 6.01252 92.4203 5.98584 92.4812 5.98584H93.796C93.857 5.98584 93.8875 6.01252 93.8875 6.06587V9.78157L92.5498 11.6909ZM92.4812 13.8174C92.4203 13.8174 92.3898 13.7869 92.3898 13.7259V12.9256L97.203 6.02014C97.2107 6.00489 97.2221 5.99727 97.2373 5.99727C97.2526 5.98965 97.2678 5.98584 97.2831 5.98584H98.4035C98.4645 5.98584 98.495 6.01252 98.495 6.06587V6.99194L93.7274 13.7831C93.7122 13.806 93.6855 13.8174 93.6474 13.8174H92.4812Z" fill="#303E48"/>
<path d="M84.6271 12.4113C84.6271 12.3504 84.6576 12.3199 84.7185 12.3199H85.3016L86.9823 6.84351C86.9975 6.79778 87.028 6.77491 87.0737 6.77491C87.1195 6.77491 87.1499 6.79778 87.1652 6.84351L87.874 9.0615L86.8794 12.3199H91.5326C91.5935 12.3199 91.624 12.3504 91.624 12.4113V13.7147C91.624 13.7757 91.5935 13.8062 91.5326 13.8062H84.7185C84.6576 13.8062 84.6271 13.7757 84.6271 13.7147V12.4113ZM89.3832 11.8054C89.3374 11.8054 89.307 11.7825 89.2917 11.7368L87.5539 6.07751C87.5387 6.05464 87.5387 6.03177 87.5539 6.00891C87.5768 5.98604 87.6073 5.97461 87.6454 5.97461H89.0059C89.0516 5.97461 89.0821 5.99748 89.0974 6.04321L90.858 11.6911C90.8733 11.7216 90.8695 11.7482 90.8466 11.7711C90.8313 11.794 90.8047 11.8054 90.7666 11.8054H89.3832Z" fill="#303E48"/>
<path d="M78.8946 13.806C78.8336 13.806 78.8031 13.7755 78.8031 13.7145V6.06587C78.8031 6.01252 78.8336 5.98584 78.8946 5.98584H80.2551C80.3161 5.98584 80.3465 6.01252 80.3465 6.06587V13.7145C80.3465 13.7755 80.3161 13.806 80.2551 13.806H78.8946ZM81.0211 13.806C80.9601 13.806 80.9296 13.7755 80.9296 13.7145V12.3997C80.9296 12.3387 80.9601 12.3082 81.0211 12.3082H83.9936C84.0546 12.3082 84.0851 12.3387 84.0851 12.3997V13.7145C84.0851 13.7755 84.0546 13.806 83.9936 13.806H81.0211ZM81.0211 7.48355C80.9601 7.48355 80.9296 7.45307 80.9296 7.39209V6.06587C80.9296 6.01252 80.9601 5.98584 81.0211 5.98584H83.9936C84.0546 5.98584 84.0851 6.01252 84.0851 6.06587V7.39209C84.0851 7.45307 84.0546 7.48355 83.9936 7.48355H81.0211ZM83.2505 9.16419C83.3115 9.16419 83.342 9.19468 83.342 9.25566V10.5704C83.342 10.6314 83.3115 10.6619 83.2505 10.6619H81.0211C80.9601 10.6619 80.9296 10.6314 80.9296 10.5704V9.25566C80.9296 9.19468 80.9601 9.16419 81.0211 9.16419H83.2505Z" fill="#303E48"/>
<path d="M75.8589 13.806C75.8055 13.806 75.7788 13.7755 75.7788 13.7145V8.60398L75.4587 9.04987C75.4435 9.07273 75.4206 9.08416 75.3901 9.08416C75.3673 9.07654 75.3482 9.06511 75.333 9.04987L74.5212 7.9866C74.4984 7.94849 74.4984 7.91038 74.5212 7.87227L75.9046 6.02014C75.9275 5.99727 75.9503 5.98584 75.9732 5.98584H77.1737C77.2346 5.98584 77.2651 6.01252 77.2651 6.06587V13.7145C77.2651 13.7755 77.2346 13.806 77.1737 13.806H75.8589ZM71.057 13.806C70.9961 13.806 70.9656 13.7755 70.9656 13.7145V7.918C70.9656 7.87227 70.9846 7.84179 71.0227 7.82654C71.0609 7.8113 71.0952 7.82273 71.1256 7.86084L72.4633 9.62151V13.7145C72.4633 13.7755 72.4328 13.806 72.3718 13.806H71.057ZM74.1897 10.7534C74.1744 10.7839 74.1516 10.7991 74.1211 10.7991C74.0906 10.7991 74.0677 10.7839 74.0525 10.7534L70.9656 6.64895V6.06587C70.9656 6.01252 70.9961 5.98584 71.057 5.98584H72.2346C72.2575 5.98584 72.2804 5.99727 72.3032 6.02014L74.9785 9.56435C75.0014 9.60246 75.0014 9.64057 74.9785 9.67868L74.1897 10.7534Z" fill="#303E48"/>
<path d="M65.0569 9.77006C65.0569 9.73195 65.0721 9.71289 65.1026 9.71289H68.9898C69.0279 9.71289 69.047 9.73195 69.047 9.77006V11.0048C69.047 11.0353 69.0279 11.0505 68.9898 11.0505H65.1026C65.0721 11.0505 65.0569 11.0353 65.0569 11.0048V9.77006Z" fill="#303E48"/>
<path d="M59.8369 13.8516C59.4786 13.8516 59.1433 13.7792 58.8308 13.6344C58.5183 13.4819 58.2477 13.2837 58.019 13.0398C57.7904 12.7959 57.6074 12.5215 57.4702 12.2167C57.3407 11.9118 57.2759 11.6031 57.2759 11.2906V8.55813C57.2759 8.25325 57.3407 7.95219 57.4702 7.65493C57.6074 7.35005 57.7904 7.07947 58.019 6.84319C58.2553 6.59929 58.5297 6.40112 58.8422 6.24868C59.1547 6.09624 59.4862 6.02002 59.8369 6.02002H59.894C59.955 6.02002 59.9855 6.0467 59.9855 6.10005V7.35767C59.9855 7.41865 59.955 7.44914 59.894 7.44914H59.8369C59.7225 7.44914 59.6006 7.48343 59.471 7.55203C59.3414 7.61301 59.2195 7.69685 59.1051 7.80356C58.9984 7.90264 58.907 8.01697 58.8308 8.14654C58.7622 8.27612 58.7279 8.4095 58.7279 8.5467V11.3135C58.7279 11.4735 58.7622 11.6222 58.8308 11.7594C58.907 11.8889 58.9984 12.0033 59.1051 12.1023C59.2195 12.1938 59.3414 12.2662 59.471 12.3196C59.6006 12.3729 59.7225 12.3996 59.8369 12.3996H59.894C59.955 12.3996 59.9855 12.4301 59.9855 12.4911V13.7601C59.9855 13.8211 59.955 13.8516 59.894 13.8516H59.8369ZM63.2439 11.2906C63.2439 11.6031 63.1753 11.9118 63.0381 12.2167C62.9085 12.5215 62.7294 12.7959 62.5007 13.0398C62.2721 13.2837 62.0015 13.4819 61.689 13.6344C61.3765 13.7792 61.0411 13.8516 60.6829 13.8516H60.6372C60.5762 13.8516 60.5457 13.8211 60.5457 13.7601V12.4911C60.5457 12.4301 60.5762 12.3996 60.6372 12.3996H60.6829C60.7972 12.3996 60.9192 12.3767 61.0487 12.331C61.1783 12.2776 61.2965 12.2052 61.4032 12.1138C61.5099 12.0147 61.5975 11.9004 61.6661 11.7708C61.7423 11.6336 61.7805 11.4811 61.7805 11.3135V11.1991C61.7805 11.1382 61.8109 11.1077 61.8719 11.1077H63.1524C63.2134 11.1077 63.2439 11.1382 63.2439 11.1991V11.2906ZM61.8719 8.72962C61.8109 8.72962 61.7805 8.69914 61.7805 8.63816V8.5467C61.7805 8.39426 61.7423 8.25325 61.6661 8.12368C61.5975 7.98648 61.5099 7.86834 61.4032 7.76926C61.2965 7.67017 61.1783 7.59395 61.0487 7.5406C60.9192 7.47962 60.7972 7.44914 60.6829 7.44914H60.6372C60.5762 7.44914 60.5457 7.41865 60.5457 7.35767V6.10005C60.5457 6.0467 60.5762 6.02002 60.6372 6.02002H60.6829C61.0411 6.02002 61.3765 6.09624 61.689 6.24868C62.0015 6.40112 62.2721 6.59929 62.5007 6.84319C62.7294 7.07947 62.9085 7.35005 63.0381 7.65493C63.1753 7.95219 63.2439 8.25325 63.2439 8.55813V8.63816C63.2439 8.69914 63.2134 8.72962 63.1524 8.72962H61.8719Z" fill="#303E48"/>
<path d="M54.3183 13.806C54.2573 13.806 54.2268 13.7755 54.2268 13.7145V10.6733H53.3007C53.2398 10.6733 53.2093 10.6429 53.2093 10.5819V9.25566C53.2093 9.19468 53.2398 9.16419 53.3007 9.16419H54.2268V6.06587C54.2268 6.01252 54.2573 5.98584 54.3183 5.98584H55.6902C55.7512 5.98584 55.7817 6.01252 55.7817 6.06587V13.7145C55.7817 13.7755 55.7512 13.806 55.6902 13.806H54.3183ZM52.6376 10.5819C52.6376 10.6429 52.6071 10.6733 52.5462 10.6733H51.5286V13.7145C51.5286 13.7755 51.4982 13.806 51.4372 13.806H50.1338C50.0728 13.806 50.0424 13.7755 50.0424 13.7145V6.06587C50.0424 6.01252 50.0728 5.98584 50.1338 5.98584H51.4372C51.4982 5.98584 51.5286 6.01252 51.5286 6.06587V9.16419H52.5462C52.6071 9.16419 52.6376 9.19468 52.6376 9.25566V10.5819Z" fill="#303E48"/>
<path d="M47.4569 13.8176C47.4188 13.8176 47.3921 13.7947 47.3769 13.749L45.0331 6.07751C45.0179 6.05464 45.0179 6.03177 45.0331 6.00891C45.056 5.98604 45.0865 5.97461 45.1246 5.97461H46.4737C46.5194 5.97461 46.5499 5.99748 46.5651 6.04321L48.9432 13.7033C48.9584 13.7795 48.928 13.8176 48.8517 13.8176H47.4569ZM44.3129 12.4456C44.2519 12.6591 44.1833 12.8763 44.1071 13.0973C44.0385 13.3184 43.9737 13.5356 43.9127 13.749C43.8975 13.7947 43.867 13.8176 43.8212 13.8176H42.4379C42.3997 13.8176 42.3693 13.8062 42.3464 13.7833C42.3311 13.7604 42.3311 13.7338 42.3464 13.7033L44.4615 6.84351C44.4767 6.79778 44.5072 6.77491 44.553 6.77491C44.5987 6.77491 44.6292 6.79778 44.6444 6.84351L45.3418 9.0615L44.7359 10.9479H45.8334C45.8792 10.9479 45.9097 10.9708 45.9249 11.0165L46.3251 12.3313C46.3403 12.3618 46.3365 12.3885 46.3136 12.4113C46.2984 12.4342 46.2717 12.4456 46.2336 12.4456H44.3129Z" fill="#303E48"/>
<path d="M41.3738 8.20403C41.3738 8.52415 41.2976 8.81379 41.1451 9.07293C40.9927 9.32446 40.8288 9.51882 40.6535 9.65601C40.9584 9.85418 41.1794 10.1057 41.3166 10.4106C41.4538 10.7155 41.5224 11.0394 41.5224 11.3824C41.5224 11.7559 41.4653 12.0912 41.3509 12.3885C41.2366 12.6857 41.0765 12.9411 40.8707 13.1545C40.6649 13.3603 40.4134 13.5203 40.1162 13.6347C39.8265 13.749 39.4988 13.8062 39.1329 13.8062H38.0239C37.963 13.8062 37.9325 13.7757 37.9325 13.7147V12.4799C37.9325 12.419 37.963 12.3885 38.0239 12.3885H39.2244C39.4683 12.3885 39.6703 12.2932 39.8303 12.1027C39.998 11.9121 40.0819 11.6949 40.0819 11.451V11.3938C40.0819 11.2795 40.059 11.1652 40.0133 11.0508C39.9752 10.9365 39.918 10.8336 39.8418 10.7421C39.7656 10.6507 39.6741 10.5783 39.5674 10.5249C39.4607 10.4716 39.3463 10.4449 39.2244 10.4449H38.0239C37.963 10.4449 37.9325 10.4144 37.9325 10.3534V9.08437C37.9325 9.03101 37.963 9.00434 38.0239 9.00434H39.1101C39.3768 9.00434 39.5788 8.93193 39.716 8.78711C39.8608 8.64229 39.9332 8.46318 39.9332 8.24976V8.18117C39.9332 7.98299 39.8685 7.8115 39.7389 7.66668C39.6093 7.52187 39.3997 7.44946 39.1101 7.44946H38.0239C37.963 7.44946 37.9325 7.41897 37.9325 7.35799V6.05464C37.9325 6.00129 37.963 5.97461 38.0239 5.97461H39.0072C39.7389 5.97461 40.3143 6.16516 40.7335 6.54626C41.1604 6.92735 41.3738 7.47995 41.3738 8.20403ZM37.3608 13.7147C37.3608 13.7757 37.3303 13.8062 37.2694 13.8062H35.9317C35.8784 13.8062 35.8517 13.7757 35.8517 13.7147V6.05464C35.8517 6.00129 35.8784 5.97461 35.9317 5.97461H37.2694C37.3303 5.97461 37.3608 6.00129 37.3608 6.05464V13.7147Z" fill="#303E48"/>
<path d="M28.0319 12.4113C28.0319 12.3504 28.0623 12.3199 28.1233 12.3199H28.7064L30.387 6.84351C30.4023 6.79778 30.4328 6.77491 30.4785 6.77491C30.5242 6.77491 30.5547 6.79778 30.57 6.84351L31.2788 9.0615L30.2841 12.3199H34.9373C34.9983 12.3199 35.0288 12.3504 35.0288 12.4113V13.7147C35.0288 13.7757 34.9983 13.8062 34.9373 13.8062H28.1233C28.0623 13.8062 28.0319 13.7757 28.0319 13.7147V12.4113ZM32.788 11.8054C32.7422 11.8054 32.7117 11.7825 32.6965 11.7368L30.9587 6.07751C30.9434 6.05464 30.9434 6.03177 30.9587 6.00891C30.9816 5.98604 31.012 5.97461 31.0502 5.97461H32.4107C32.4564 5.97461 32.4869 5.99748 32.5021 6.04321L34.2628 11.6911C34.2781 11.7216 34.2742 11.7482 34.2514 11.7711C34.2361 11.794 34.2095 11.8054 34.1713 11.8054H32.788Z" fill="#303E48"/>
<path d="M26.1095 13.8176C26.0714 13.8176 26.0447 13.7947 26.0295 13.749L23.6857 6.07751C23.6705 6.05464 23.6705 6.03177 23.6857 6.00891C23.7086 5.98604 23.7391 5.97461 23.7772 5.97461H25.1263C25.172 5.97461 25.2025 5.99748 25.2177 6.04321L27.5958 13.7033C27.611 13.7795 27.5805 13.8176 27.5043 13.8176H26.1095ZM22.9654 12.4456C22.9045 12.6591 22.8359 12.8763 22.7597 13.0973C22.6911 13.3184 22.6263 13.5356 22.5653 13.749C22.55 13.7947 22.5196 13.8176 22.4738 13.8176H21.0904C21.0523 13.8176 21.0218 13.8062 20.999 13.7833C20.9837 13.7604 20.9837 13.7338 20.999 13.7033L23.1141 6.84351C23.1293 6.79778 23.1598 6.77491 23.2055 6.77491C23.2513 6.77491 23.2818 6.79778 23.297 6.84351L23.9944 9.0615L23.3885 10.9479H24.486C24.5318 10.9479 24.5622 10.9708 24.5775 11.0165L24.9776 12.3313C24.9929 12.3618 24.9891 12.3885 24.9662 12.4113C24.951 12.4342 24.9243 12.4456 24.8862 12.4456H22.9654Z" fill="#303E48"/>
<path d="M10.8538 9.99958C10.8538 11.0055 10.0383 11.8209 9.03242 11.8209C8.02651 11.8209 7.21106 11.0055 7.21106 9.99958C7.21106 8.99367 8.02651 8.17822 9.03242 8.17822C10.0383 8.17822 10.8538 8.99367 10.8538 9.99958Z" fill="#303E48"/>
<path d="M8.50232 4.80225H9.56234V16.0502H8.50232V4.80225Z" fill="#303E48"/>
<path d="M13.0079 6.59229L13.5652 7.49401L3.99692 13.4072L3.43966 12.5054L13.0079 6.59229Z" fill="#303E48"/>
<path d="M3.9939 7.49365L4.55122 6.59197L14.1191 12.5058L13.5617 13.4075L3.9939 7.49365Z" fill="#303E48"/>
<path d="M11.6123 3.16002C11.6123 4.58489 10.4572 5.73997 9.03234 5.73997C7.60747 5.73997 6.45239 4.58489 6.45239 3.16002C6.45239 1.73516 7.60747 0.580078 9.03234 0.580078C10.4572 0.580078 11.6123 1.73516 11.6123 3.16002Z" fill="#DC7C44"/>
<path d="M11.6123 16.8397C11.6123 18.2646 10.4572 19.4197 9.03234 19.4197C7.60747 19.4197 6.45239 18.2646 6.45239 16.8397C6.45239 15.4148 7.60747 14.2598 9.03234 14.2598C10.4572 14.2598 11.6123 15.4148 11.6123 16.8397Z" fill="#4C8EAA"/>
<path d="M5.17759 6.35729C5.17759 7.78215 4.02251 8.93723 2.59765 8.93723C1.17278 8.93723 0.0177002 7.78215 0.0177002 6.35729C0.0177002 4.93242 1.17278 3.77734 2.59765 3.77734C4.02251 3.77734 5.17759 4.93242 5.17759 6.35729Z" fill="#EDB444"/>
<path d="M17.6556 6.35729C17.6556 7.78215 16.5005 8.93723 15.0757 8.93723C13.6508 8.93723 12.4957 7.78215 12.4957 6.35729C12.4957 4.93242 13.6508 3.77734 15.0757 3.77734C16.5005 3.77734 17.6556 4.93242 17.6556 6.35729Z" fill="#BA557B"/>
<path d="M5.17759 13.0062C5.17759 14.4311 4.02251 15.5862 2.59765 15.5862C1.17278 15.5862 0.0177002 14.4311 0.0177002 13.0062C0.0177002 11.5814 1.17278 10.4263 2.59765 10.4263C4.02251 10.4263 5.17759 11.5814 5.17759 13.0062Z" fill="#D24A43"/>
<path d="M17.6556 13.0062C17.6556 14.4311 16.5005 15.5862 15.0757 15.5862C13.6508 15.5862 12.4957 14.4311 12.4957 13.0062C12.4957 11.5814 13.6508 10.4263 15.0757 10.4263C16.5005 10.4263 17.6556 11.5814 17.6556 13.0062Z" fill="#4C679B"/>
</svg>
