<svg width="12" height="10" viewBox="0 0 12 10" fill="none" xmlns="http://www.w3.org/2000/svg">
<path d="M11.8082 4.53387L7.47457 0.200153C7.35087 0.0764468 7.18599 0.00854492 7.01019 0.00854492C6.83419 0.00854492 6.66941 0.0765444 6.5457 0.200153L6.15224 0.593711C6.02864 0.717222 5.96054 0.882196 5.96054 1.0581C5.96054 1.2339 6.02864 1.40444 6.15224 1.52795L8.68042 4.06168H0.648288C0.286144 4.06168 0 4.34519 0 4.70743V5.26382C0 5.62606 0.286144 5.93816 0.648288 5.93816H8.7091L6.15234 8.48604C6.02873 8.60974 5.96064 8.77023 5.96064 8.94613C5.96064 9.12184 6.02873 9.28466 6.15234 9.40827L6.5458 9.80056C6.66951 9.92427 6.83429 9.99168 7.01029 9.99168C7.18609 9.99168 7.35097 9.92339 7.47467 9.79968L11.8083 5.46606C11.9323 5.34196 12.0005 5.17631 12 5.00021C12.0004 4.82353 11.9323 4.65778 11.8082 4.53387Z" fill="#232E40"/>
</svg>
