<svg width="8" height="14" viewBox="0 0 8 14" fill="none" xmlns="http://www.w3.org/2000/svg">
<path d="M6.96542 0.890835C7.14601 0.886863 7.32335 0.939215 7.47279 1.04069C7.62223 1.14217 7.73634 1.28775 7.79925 1.45708C7.86216 1.62641 7.87075 1.8111 7.82383 1.98553C7.77691 2.15997 7.6768 2.31538 7.53743 2.43029L2.21959 6.98601L7.53743 11.5401C7.63384 11.611 7.71458 11.7009 7.7746 11.8044C7.83462 11.908 7.87261 12.0228 7.88621 12.1416C7.89981 12.2605 7.88872 12.3809 7.85363 12.4953C7.81855 12.6097 7.76022 12.7156 7.6823 12.8064C7.60439 12.8972 7.50856 12.9709 7.40083 13.0229C7.2931 13.075 7.17578 13.1042 7.05622 13.1088C6.93666 13.1135 6.81743 13.0934 6.70601 13.0498C6.59459 13.0062 6.49336 12.9401 6.40868 12.8555L0.320242 7.64628C0.22463 7.56468 0.147854 7.46341 0.0952072 7.34927C0.0425611 7.23513 0.0152988 7.1109 0.0152988 6.98521C0.0152988 6.85951 0.0425611 6.73528 0.0952072 6.62114C0.147854 6.507 0.22463 6.40563 0.320242 6.32404L6.40868 1.10976C6.56249 0.973143 6.75976 0.895675 6.96542 0.890835Z" fill="#092858"/>
</svg>
