<svg width="15" height="15" viewBox="0 0 15 15" fill="none" xmlns="http://www.w3.org/2000/svg">
<path d="M11.0737 1.90545C10.4254 1.37456 9.66722 0.994172 8.85403 0.791738C8.04084 0.589305 7.19285 0.569868 6.37124 0.734829C5.31482 0.951416 4.34292 1.46711 3.57132 2.22048C2.79972 2.97386 2.26095 3.93315 2.01917 4.98409C1.7774 6.03503 1.84281 7.13332 2.20763 8.14814C2.57245 9.16295 3.22129 10.0515 4.07686 10.708C5.0537 11.4229 5.8854 12.3174 6.52749 13.3436L6.96499 14.0711C7.02055 14.1635 7.09908 14.2399 7.19294 14.293C7.28679 14.3461 7.39279 14.374 7.50061 14.374C7.60844 14.374 7.71443 14.3461 7.80829 14.293C7.90215 14.2399 7.98067 14.1635 8.03624 14.0711L8.45561 13.3723C9.01475 12.3894 9.77713 11.5371 10.6919 10.8723C11.4091 10.3788 12.0019 9.72544 12.4234 8.96366C12.8449 8.20188 13.0836 7.35257 13.1207 6.48274C13.1578 5.61292 12.9922 4.74637 12.6371 3.95147C12.282 3.15658 11.747 2.45508 11.0744 1.90233L11.0737 1.90545ZM7.49999 8.74983C7.00554 8.74983 6.52219 8.60321 6.11106 8.3285C5.69994 8.0538 5.37951 7.66335 5.19029 7.20654C5.00107 6.74972 4.95156 6.24706 5.04803 5.7621C5.14449 5.27715 5.38259 4.83169 5.73222 4.48206C6.08185 4.13243 6.52731 3.89433 7.01226 3.79787C7.49722 3.7014 7.99988 3.75091 8.4567 3.94013C8.91351 4.12935 9.30396 4.44978 9.57866 4.8609C9.85337 5.27203 9.99999 5.75538 9.99999 6.24983C9.99999 6.91287 9.7366 7.54876 9.26776 8.0176C8.79891 8.48644 8.16303 8.74983 7.49999 8.74983Z" fill="#092858"/>
</svg>
