<svg width="39" height="40" viewBox="0 0 39 40" fill="none" xmlns="http://www.w3.org/2000/svg">
<circle cx="19.5237" cy="20.2952" r="19.4763" fill="#E6FFDD"/>
<g clip-path="url(#clip0_3_2297)">
<path d="M19.5257 11.8838H19.5215C14.8836 11.8838 11.1121 15.6564 11.1121 20.2954C11.1121 22.1354 11.7051 23.8409 12.7134 25.2256L11.6651 28.3505L14.8983 27.3169C16.2284 28.1981 17.815 28.707 19.5257 28.707C24.1637 28.707 27.9352 24.9333 27.9352 20.2954C27.9352 15.6574 24.1637 11.8838 19.5257 11.8838ZM24.4202 23.762C24.2173 24.335 23.4119 24.8103 22.7695 24.9491C22.33 25.0427 21.7559 25.1173 19.8233 24.3161C17.3514 23.292 15.7595 20.7801 15.6354 20.6171C15.5166 20.4541 14.6365 19.287 14.6365 18.08C14.6365 16.8729 15.2495 16.2852 15.4966 16.0328C15.6995 15.8257 16.0349 15.731 16.3567 15.731C16.4608 15.731 16.5544 15.7363 16.6385 15.7405C16.8856 15.751 17.0096 15.7657 17.1726 16.1558C17.3755 16.6447 17.8697 17.8518 17.9286 17.9759C17.9885 18.0999 18.0485 18.2682 17.9643 18.4312C17.8855 18.5994 17.8161 18.674 17.692 18.817C17.568 18.96 17.4502 19.0694 17.3261 19.2229C17.2126 19.3564 17.0843 19.4994 17.2273 19.7465C17.3703 19.9883 17.8645 20.7948 18.5921 21.4425C19.531 22.2784 20.2923 22.5455 20.5646 22.659C20.7675 22.7431 21.0093 22.7232 21.1576 22.5654C21.3458 22.3625 21.5782 22.0261 21.8147 21.6948C21.983 21.4572 22.1954 21.4278 22.4183 21.5119C22.6454 21.5908 23.8472 22.1848 24.0943 22.3078C24.3414 22.4319 24.5044 22.4908 24.5643 22.5949C24.6232 22.699 24.6232 23.1879 24.4202 23.762Z" fill="#70BD54"/>
</g>
<defs>
<clipPath id="clip0_3_2297">
<rect width="16.8232" height="16.8232" fill="white" transform="translate(11.1121 11.8838)"/>
</clipPath>
</defs>
</svg>
