<svg width="25" height="24" viewBox="0 0 25 24" fill="none" xmlns="http://www.w3.org/2000/svg">
<g clip-path="url(#clip0_40_5109)">
<path d="M23.382 0H14.6547C14.0522 0 13.5638 0.488438 13.5638 1.09092C13.5638 1.69341 14.0522 2.18184 14.6547 2.18184H20.7483L9.51973 13.4105C9.09368 13.8365 9.09368 14.5272 9.51973 14.9532C9.73268 15.1662 10.0119 15.2727 10.2911 15.2727C10.5702 15.2727 10.8495 15.1663 11.0625 14.9532L22.2911 3.72459V9.8182C22.2911 10.4207 22.7795 10.9091 23.382 10.9091C23.9845 10.9091 24.4729 10.4207 24.4729 9.8182V1.09092C24.4729 0.488438 23.9845 0 23.382 0Z" fill="white" fill-opacity="0.3"/>
<path d="M19.0181 10.9091C18.4156 10.9091 17.9272 11.3975 17.9272 12V21.8182H2.65445V6.54544H12.4727C13.0751 6.54544 13.5636 6.05701 13.5636 5.45452C13.5636 4.85204 13.0751 4.36365 12.4727 4.36365H1.56358C0.961094 4.36365 0.472656 4.85208 0.472656 5.45457V22.9091C0.472656 23.5116 0.961094 24 1.56358 24H19.0181C19.6206 24 20.1091 23.5116 20.1091 22.9091V12C20.109 11.3975 19.6206 10.9091 19.0181 10.9091Z" fill="white" fill-opacity="0.3"/>
</g>
<defs>
<clipPath id="clip0_40_5109">
<rect width="24" height="24" fill="white" transform="translate(0.472656)"/>
</clipPath>
</defs>
</svg>
