<svg width="13" height="10" viewBox="0 0 13 10" fill="none" xmlns="http://www.w3.org/2000/svg">
<path d="M11.9176 4.53387L7.58395 0.200153C7.46024 0.0764468 7.29537 0.00854492 7.11956 0.00854492C6.94356 0.00854492 6.77879 0.0765444 6.65508 0.200153L6.26162 0.593711C6.13801 0.717222 6.06991 0.882196 6.06991 1.0581C6.06991 1.2339 6.13801 1.40444 6.26162 1.52795L8.78979 4.06168H0.757663C0.395519 4.06168 0.109375 4.34519 0.109375 4.70743V5.26382C0.109375 5.62606 0.395519 5.93816 0.757663 5.93816H8.81848L6.26172 8.48604C6.13811 8.60974 6.07001 8.77023 6.07001 8.94613C6.07001 9.12184 6.13811 9.28466 6.26172 9.40827L6.65518 9.80056C6.77888 9.92427 6.94366 9.99168 7.11966 9.99168C7.29546 9.99168 7.46034 9.92339 7.58405 9.79968L11.9177 5.46606C12.0417 5.34196 12.1099 5.17631 12.1094 5.00021C12.1098 4.82353 12.0417 4.65778 11.9176 4.53387Z" fill="#70BD54"/>
</svg>
