<svg width="74" height="74" viewBox="0 0 74 74" fill="none" xmlns="http://www.w3.org/2000/svg">
<circle cx="36.6635" cy="36.665" r="36.665" fill="#70BD54"/>
<g clip-path="url(#clip0_1_252)">
<path d="M29.584 42.9316C29.0798 42.4276 28.8899 42.6808 28.7777 42.7931C25.874 45.6968 23.2962 52.7029 24.659 52.0186C29.6201 49.5276 30.4467 50.2693 33.3503 47.3658C33.4626 47.2535 33.7207 47.0685 33.2018 46.5495L29.584 42.9316Z" fill="white"/>
<path d="M45.2373 42.8927C45.1057 42.474 45.3814 42.2722 45.4974 42.1469C51.9061 35.228 55.9791 26.0097 52.9608 22.9912C49.9584 19.9889 41.0244 24.1809 34.1073 30.5434C33.9705 30.6694 33.7007 30.9081 33.2182 30.8074L31.0631 30.2942C30.4648 30.1519 29.6193 30.3911 29.1844 30.826L21.2766 38.7337C20.8417 39.1687 20.983 39.6027 21.5907 39.6981L27.3101 40.5969C27.9178 40.6925 28.7708 40.4148 29.2056 39.9797C29.2056 39.9797 29.5007 39.6838 29.7972 39.9802C31.433 41.6158 34.4727 44.6556 36.0312 46.2141C36.3409 46.5238 36.0442 46.8184 36.0442 46.8184C35.6092 47.2534 35.3316 48.1062 35.4272 48.714L36.3259 54.4333C36.4214 55.0412 36.8554 55.1825 37.2903 54.7475L45.1982 46.8396C45.633 46.4047 45.8723 45.5594 45.7298 44.9611L45.2373 42.8927ZM43.4669 32.6765C42.1275 31.3371 42.1275 29.1657 43.4669 27.8265C44.8062 26.4871 46.9775 26.4871 48.317 27.8265C49.6562 29.1656 49.6562 31.3371 48.317 32.6764C46.9775 34.0158 44.8061 34.0158 43.4669 32.6765Z" fill="white"/>
</g>
<defs>
<clipPath id="clip0_1_252">
<rect width="33" height="33" fill="white" transform="translate(21 22)"/>
</clipPath>
</defs>
</svg>
