<svg width="40" height="40" viewBox="0 0 40 40" fill="none" xmlns="http://www.w3.org/2000/svg">
<circle cx="19.5847" cy="20.2952" r="19.4763" fill="#E6FFDD"/>
<g clip-path="url(#clip0_3_2307)">
<path d="M27.9071 25.4262C27.8867 25.3823 27.8677 25.3459 27.8501 25.3167C27.5582 24.791 27.0004 24.1458 26.1771 23.3808L26.1597 23.3633L26.151 23.3547L26.1422 23.3459H26.1333C25.7597 22.9897 25.523 22.7501 25.4239 22.6275C25.2426 22.3939 25.202 22.1575 25.3011 21.9179C25.3711 21.7369 25.6341 21.3546 26.0894 20.7706C26.3289 20.4611 26.5186 20.213 26.6587 20.0261C27.669 18.683 28.107 17.8247 27.9726 17.4509L27.9205 17.3636C27.8854 17.311 27.7949 17.2629 27.6491 17.219C27.5029 17.1753 27.3161 17.168 27.0883 17.1972L24.5657 17.2146C24.5249 17.2001 24.4665 17.2015 24.3905 17.219C24.3146 17.2366 24.2766 17.2454 24.2766 17.2454L24.2327 17.2673L24.1978 17.2937C24.1686 17.3111 24.1365 17.3417 24.1014 17.3856C24.0666 17.4292 24.0374 17.4804 24.0141 17.5388C23.7394 18.2454 23.4272 18.9023 23.0767 19.5096C22.8607 19.8717 22.6622 20.1855 22.481 20.4512C22.3 20.7169 22.1482 20.9126 22.0257 21.038C21.9029 21.1636 21.7922 21.2642 21.6927 21.3402C21.5934 21.4162 21.5176 21.4483 21.4651 21.4366C21.4125 21.4248 21.363 21.4131 21.3161 21.4015C21.2344 21.3489 21.1686 21.2774 21.1191 21.1869C21.0693 21.0964 21.0358 20.9825 21.0183 20.8452C21.0009 20.7079 20.9906 20.5898 20.9876 20.4905C20.9849 20.3913 20.9862 20.251 20.9921 20.07C20.9982 19.8889 21.0009 19.7664 21.0009 19.7021C21.0009 19.4802 21.0052 19.2393 21.0139 18.9795C21.0227 18.7196 21.0299 18.5138 21.0359 18.3621C21.0418 18.2102 21.0446 18.0496 21.0446 17.8803C21.0446 17.7109 21.0343 17.5781 21.0139 17.4817C20.9938 17.3854 20.9629 17.292 20.9222 17.2014C20.8812 17.1109 20.8213 17.0409 20.7426 16.9912C20.6638 16.9415 20.5658 16.9021 20.4492 16.8729C20.1397 16.8028 19.7455 16.7649 19.2666 16.7591C18.1805 16.7474 17.4827 16.8175 17.1732 16.9694C17.0505 17.0335 16.9396 17.1212 16.8404 17.232C16.7352 17.3606 16.7206 17.4307 16.7965 17.4422C17.1469 17.4947 17.395 17.6203 17.541 17.8188L17.5936 17.924C17.6345 17.9999 17.6754 18.1343 17.7163 18.3269C17.7571 18.5196 17.7834 18.7327 17.795 18.9662C17.8242 19.3926 17.8242 19.7575 17.795 20.0611C17.7658 20.3648 17.7382 20.6013 17.7118 20.7706C17.6855 20.94 17.6461 21.0772 17.5936 21.1823C17.541 21.2874 17.506 21.3516 17.4884 21.375C17.4709 21.3983 17.4563 21.413 17.4447 21.4187C17.3688 21.4478 17.2898 21.4626 17.2081 21.4626C17.1263 21.4626 17.0271 21.4217 16.9103 21.3399C16.7936 21.2581 16.6725 21.1458 16.5469 21.0027C16.4213 20.8596 16.2797 20.6596 16.122 20.4027C15.9644 20.1458 15.8009 19.8421 15.6315 19.4918L15.4914 19.2377C15.4038 19.0742 15.2842 18.8362 15.1323 18.5239C14.9804 18.2114 14.8461 17.9092 14.7294 17.6172C14.6827 17.4946 14.6126 17.4012 14.5192 17.337L14.4754 17.3106C14.4462 17.2873 14.3994 17.2625 14.3353 17.2362C14.271 17.2098 14.2039 17.1909 14.1338 17.1793L11.7338 17.1967C11.4885 17.1967 11.3221 17.2523 11.2345 17.3632L11.1994 17.4157C11.1819 17.445 11.1731 17.4916 11.1731 17.5559C11.1731 17.6202 11.1906 17.699 11.2257 17.7924C11.576 18.6158 11.957 19.4099 12.3687 20.1749C12.7803 20.9398 13.1381 21.556 13.4416 22.0229C13.7453 22.4901 14.0548 22.9311 14.3701 23.3455C14.6855 23.7602 14.8942 24.0259 14.9963 24.1426C15.0986 24.2596 15.1789 24.347 15.2373 24.4054L15.4563 24.6156C15.5964 24.7557 15.8022 24.9236 16.0738 25.1192C16.3454 25.3149 16.6461 25.5076 16.976 25.6975C17.306 25.8871 17.6899 26.0419 18.1279 26.1615C18.5658 26.2814 18.9921 26.3294 19.4067 26.3062H20.414C20.6183 26.2886 20.7731 26.2243 20.8783 26.1135L20.9131 26.0696C20.9366 26.0347 20.9585 25.9806 20.9788 25.9077C20.9993 25.8347 21.0094 25.7543 21.0094 25.6668C21.0035 25.4158 21.0226 25.1895 21.0663 24.9881C21.1099 24.7867 21.1597 24.6349 21.2153 24.5326C21.271 24.4305 21.3337 24.3443 21.4036 24.2744C21.4736 24.2043 21.5235 24.1619 21.5527 24.1473C21.5818 24.1326 21.6051 24.1226 21.6226 24.1167C21.7627 24.07 21.9276 24.1152 22.1176 24.2525C22.3074 24.3898 22.4855 24.5592 22.652 24.7606C22.8184 24.9621 23.0184 25.1883 23.2519 25.4393C23.4856 25.6905 23.6899 25.8772 23.865 26L24.0402 26.1051C24.1571 26.1752 24.3089 26.2394 24.4958 26.2978C24.6824 26.3562 24.8458 26.3708 24.9862 26.3416L27.2285 26.3066C27.4502 26.3066 27.6228 26.2699 27.7452 26.197C27.8679 26.1241 27.9407 26.0436 27.9642 25.9562C27.9877 25.8686 27.9889 25.7693 27.9687 25.6582C27.9479 25.5474 27.9274 25.47 27.9071 25.4262Z" fill="#70BD54"/>
</g>
<defs>
<clipPath id="clip0_3_2307">
<rect width="16.8232" height="16.8232" fill="white" transform="translate(11.1731 13.1455)"/>
</clipPath>
</defs>
</svg>
