<svg width="13" height="10" viewBox="0 0 13 10" fill="none" xmlns="http://www.w3.org/2000/svg">
<path d="M12.4737 4.53387L8.1401 0.200153C8.0164 0.0764468 7.85152 0.00854492 7.67572 0.00854492C7.49972 0.00854492 7.33494 0.0765444 7.21123 0.200153L6.81777 0.593711C6.69416 0.717222 6.62607 0.882196 6.62607 1.0581C6.62607 1.2339 6.69416 1.40444 6.81777 1.52795L9.34595 4.06168H1.31381C0.951671 4.06168 0.665527 4.34519 0.665527 4.70743V5.26382C0.665527 5.62606 0.951671 5.93816 1.31381 5.93816H9.37463L6.81787 8.48604C6.69426 8.60974 6.62616 8.77023 6.62616 8.94613C6.62616 9.12184 6.69426 9.28466 6.81787 9.40827L7.21133 9.80056C7.33504 9.92427 7.49981 9.99168 7.67581 9.99168C7.85162 9.99168 8.01649 9.92339 8.1402 9.79968L12.4738 5.46606C12.5978 5.34196 12.666 5.17631 12.6655 5.00021C12.6659 4.82353 12.5978 4.65778 12.4737 4.53387Z" fill="white"/>
</svg>
