<svg width="74" height="74" viewBox="0 0 74 74" fill="none" xmlns="http://www.w3.org/2000/svg">
<circle cx="36.6635" cy="36.665" r="36.665" fill="#70BD54"/>
<g clip-path="url(#clip0_1_251)">
<path d="M44.588 34.5478H52.6649V30.7978C52.6649 28.4119 50.7239 26.4709 48.338 26.4709H26.9918C24.606 26.4709 22.6649 28.4119 22.6649 30.7978V46.9516C22.6649 49.3375 24.606 51.2785 26.9918 51.2785H48.338C50.7239 51.2785 52.6649 49.3375 52.6649 46.9516V43.2016H44.588C42.2021 43.2016 40.2611 41.2606 40.2611 38.8747C40.2611 36.4888 42.2021 34.5478 44.588 34.5478Z" fill="white"/>
<path d="M44.588 36.2785C43.1565 36.2785 41.9918 37.4431 41.9918 38.8747C41.9918 40.3062 43.1564 41.4708 44.588 41.4708H52.6649V36.2786L44.588 36.2785ZM45.7418 39.74H44.588C44.11 39.74 43.7226 39.3526 43.7226 38.8747C43.7226 38.3968 44.1101 38.0093 44.588 38.0093H45.7418C46.2198 38.0093 46.6072 38.3968 46.6072 38.8747C46.6072 39.3526 46.2198 39.74 45.7418 39.74Z" fill="white"/>
</g>
<defs>
<clipPath id="clip0_1_251">
<rect width="30" height="30" fill="white" transform="translate(22.6649 23.8747)"/>
</clipPath>
</defs>
</svg>
