<svg width="10" height="11" viewBox="0 0 10 11" fill="none" xmlns="http://www.w3.org/2000/svg">
<g clip-path="url(#clip0_3_2399)">
<path d="M9.1976 6.70497C8.58536 6.70497 7.98422 6.60921 7.41456 6.42096C7.13542 6.32575 6.79227 6.41309 6.6219 6.58807L5.4975 7.43687C4.19352 6.7408 3.39029 5.93783 2.70372 4.64364L3.52755 3.54854C3.74159 3.33479 3.81836 3.02255 3.72638 2.72958C3.53732 2.15692 3.44128 1.55606 3.44128 0.943561C3.4413 0.501087 3.08133 0.141113 2.63888 0.141113H0.802422C0.359974 0.141113 0 0.501087 0 0.943535C0 6.01515 4.12599 10.1411 9.1976 10.1411C9.64005 10.1411 10 9.78114 10 9.33869V7.50736C10 7.06494 9.64003 6.70497 9.1976 6.70497Z" fill="#092858"/>
</g>
<defs>
<clipPath id="clip0_3_2399">
<rect width="10" height="10" fill="white" transform="translate(0 0.141113)"/>
</clipPath>
</defs>
</svg>
