<svg width="74" height="74" viewBox="0 0 74 74" fill="none" xmlns="http://www.w3.org/2000/svg">
<circle cx="36.6635" cy="36.665" r="36.665" fill="#70BD54"/>
<g clip-path="url(#clip0_1_250)">
<path d="M37.1649 47.2053C39.911 47.2053 42.1454 44.9709 42.1454 42.2248C42.1454 41.8868 42.1012 41.5553 42.0349 41.2287H32.2949C32.2285 41.5553 32.1844 41.8868 32.1844 42.2248C32.1844 44.9709 34.4188 47.2053 37.1649 47.2053Z" fill="white"/>
<path d="M24.2157 42.2248V44.217C24.2157 44.7671 24.6617 45.2131 25.2118 45.2131H26.6242C26.8557 46.0273 27.1836 46.8123 27.6048 47.5593L26.5999 48.5642C26.211 48.9531 26.211 49.5838 26.5999 49.9727L29.417 52.7898C29.8059 53.1788 30.4366 53.1788 30.8255 52.7898L31.8304 51.785C32.5775 52.2062 33.3625 52.534 34.1767 52.7655V54.1779C34.1767 54.7623 34.6548 55.2404 35.2392 55.2404H39.1571C39.7073 55.2404 40.1532 54.7944 40.1532 54.2443V52.7655C40.9674 52.534 41.7524 52.2061 42.4995 51.7849L43.5044 52.7898C43.8933 53.1787 44.524 53.1787 44.9129 52.7898L47.73 49.9727C48.1189 49.5837 48.1189 48.9531 47.73 48.5641L46.7251 47.5593C47.1463 46.8122 47.4741 46.0272 47.7057 45.213H49.118C49.6681 45.213 50.1141 44.767 50.1141 44.2169V42.2247C50.1141 41.6746 49.6681 41.2286 49.118 41.2286H44.0533C44.1006 41.5575 44.1375 41.8886 44.1375 42.2247C44.1375 46.0691 41.0092 49.1974 37.1649 49.1974C33.3206 49.1974 30.1922 46.0691 30.1922 42.2247C30.1922 41.8886 30.2292 41.5575 30.2765 41.2286H25.2118C24.6617 41.2287 24.2157 41.6747 24.2157 42.2248Z" fill="white"/>
<path d="M24.2157 22.2365V25.2912H32.1844V22.2365C32.1844 21.6864 31.7384 21.2404 31.1883 21.2404H25.2118C24.6617 21.2404 24.2157 21.6864 24.2157 22.2365Z" fill="white"/>
<path d="M40.1532 32.2639H43.1414V34.256H40.1532V32.2639Z" fill="white"/>
<path d="M45.1336 32.2639H48.1219V34.256H45.1336V32.2639Z" fill="white"/>
<path d="M53.6386 23.4167C53.3166 23.2426 52.9227 23.262 52.6162 23.4663L48.1219 26.4186V24.2951C48.1219 23.9274 47.9196 23.5899 47.5956 23.4167C47.2717 23.2426 46.8787 23.262 46.5733 23.4663L42.1454 26.4186V24.2951C42.1454 23.9274 41.943 23.5899 41.6191 23.4167C41.2962 23.2426 40.9022 23.262 40.5967 23.4663L34.6201 27.4507C34.343 27.6355 34.1766 27.9464 34.1766 28.2795V35.2521H32.1844V27.2834H24.2157V35.2521H21.161C20.6109 35.2521 20.1649 35.6981 20.1649 36.2482V38.2404C20.1649 38.7905 20.6109 39.2365 21.161 39.2365H53.1688C53.7189 39.2365 54.1649 38.7905 54.1649 38.2404V24.2951C54.1649 23.9274 53.9625 23.5899 53.6386 23.4167ZM50.1141 35.2521C50.1141 35.8022 49.6681 36.2482 49.118 36.2482H39.1571C38.607 36.2482 38.161 35.8022 38.161 35.2521V31.2678C38.161 30.7176 38.607 30.2717 39.1571 30.2717H49.118C49.6681 30.2717 50.1141 30.7176 50.1141 31.2678V35.2521Z" fill="white"/>
</g>
<defs>
<clipPath id="clip0_1_250">
<rect width="34" height="34" fill="white" transform="translate(20.1649 21.2404)"/>
</clipPath>
</defs>
</svg>
