<svg width="9" height="14" viewBox="0 0 9 14" fill="none" xmlns="http://www.w3.org/2000/svg">
<path d="M1.36564 0.890835C1.18504 0.886863 1.0077 0.939215 0.858264 1.04069C0.708827 1.14217 0.594719 1.28775 0.531806 1.45708C0.468893 1.62641 0.4603 1.8111 0.507223 1.98553C0.554146 2.15997 0.654252 2.31538 0.793624 2.43029L6.11146 6.98601L0.793624 11.5401C0.697214 11.611 0.616472 11.7009 0.556456 11.8044C0.496439 11.908 0.458442 12.0228 0.444842 12.1416C0.431242 12.2605 0.442333 12.3809 0.47742 12.4953C0.512507 12.6097 0.570834 12.7156 0.64875 12.8064C0.726665 12.8972 0.82249 12.9709 0.930223 13.0229C1.03796 13.075 1.15528 13.1042 1.27484 13.1088C1.3944 13.1135 1.51362 13.0934 1.62505 13.0498C1.73647 13.0062 1.83769 12.9401 1.92237 12.8555L8.01081 7.64628C8.10642 7.56468 8.1832 7.46341 8.23585 7.34927C8.28849 7.23513 8.31576 7.1109 8.31576 6.98521C8.31576 6.85951 8.28849 6.73528 8.23585 6.62114C8.1832 6.507 8.10642 6.40563 8.01081 6.32404L1.92237 1.10976C1.76857 0.973143 1.57129 0.895675 1.36564 0.890835Z" fill="#092858"/>
</svg>
