<svg width="50" height="52" viewBox="0 0 50 52" fill="none" xmlns="http://www.w3.org/2000/svg">
<path fill-rule="evenodd" clip-rule="evenodd" d="M24.9213 0.0522461C38.6836 0.0522461 49.8427 11.5742 49.8427 25.7841C49.8427 39.9941 38.6836 51.5161 24.9213 51.5161C11.159 51.5161 0 39.9941 0 25.7841C0 11.5742 11.159 0.0522461 24.9213 0.0522461Z" fill="#DC6A02"/>
<path fill-rule="evenodd" clip-rule="evenodd" d="M26.5143 22.6037C27.0521 22.8099 27.8302 22.6626 28.3069 22.3009C28.4413 22.1999 28.5513 22.0989 28.6572 21.9769C28.6898 21.9391 28.6735 21.9517 28.7143 21.9265C28.7795 22.3598 29.1502 22.7804 29.3498 22.9824C29.525 23.159 30.0669 23.6344 30.2869 23.7269C30.5191 23.6302 30.5721 23.2431 30.568 22.9992C30.5598 22.7005 30.4906 22.4103 30.4091 22.1452C30.3277 21.8844 30.238 21.6489 30.1321 21.4049L29.8062 20.7023C29.7491 20.5004 29.7654 19.9536 29.7899 19.7306C29.8795 18.8514 30.2217 18.0942 30.2706 17.1478C30.3317 15.9447 29.8102 14.2073 29.0076 13.3155C28.8243 13.1136 28.7061 12.9832 28.4943 12.8065C28.2417 12.592 27.6224 12.1671 27.1947 12.083C27.0643 12.4952 27.0724 12.5415 26.8972 12.9916C26.5917 13.7825 26.0376 14.628 25.2961 15.0276C24.7665 15.3095 23.6746 15.4609 24.3794 16.0456C24.8724 16.4537 25.9969 17.0089 26.6039 17.4254C27.3168 17.9134 28.0095 18.578 28.1806 19.4866C28.258 19.8947 28.2295 20.1723 28.0828 20.5299C27.8058 21.2071 27.1213 22.0148 26.5795 22.528C26.551 22.5575 26.5306 22.5659 26.5102 22.5995" fill="white"/>
<path fill-rule="evenodd" clip-rule="evenodd" d="M21.389 16.3613C20.5661 16.4286 20.1464 16.6473 19.7716 17.3456C19.4294 17.9808 19.4253 18.8264 19.5231 19.6214C19.7105 21.1316 20.1464 22.2884 20.8553 23.5798C21.389 24.5516 21.7231 25.1321 22.3261 26.0618C22.4198 26.2047 22.489 26.3015 22.5298 26.5076C22.6316 26.9872 22.2975 27.2817 22.5991 27.5971C22.7009 27.7023 22.8761 27.858 23.035 27.7738C23.2102 27.6813 23.3405 27.3658 23.4057 27.1639C23.4261 27.1008 23.4546 26.9493 23.479 26.903C23.6053 26.6717 24.1268 27.1302 24.4324 26.6675C24.6727 26.3057 24.3672 25.9271 23.9312 26.0828C23.7276 26.1543 23.6013 26.1543 23.4301 26.0365C23.0594 25.7841 22.8475 25.1068 22.9372 24.5894C23.0553 23.8827 23.5687 23.2391 24.0453 22.7469C24.4487 22.3262 24.8153 22.036 25.2757 21.6742C25.9194 21.1694 26.6609 20.8455 27.0276 20.1557C27.109 20.0042 27.1661 19.8485 27.1905 19.6509C27.3087 18.6665 26.2005 17.9051 25.4509 17.4676C24.4283 16.8703 22.8353 16.2393 21.385 16.3571M20.2075 18.0187C20.069 16.5295 22.5746 16.8534 23.6135 17.089C24.245 17.232 24.8316 17.5097 25.235 17.842C25.565 18.1154 26.1598 18.6959 25.9642 19.4531C25.8216 20.0126 25.2553 20.3702 24.6483 20.5216C23.9679 20.6899 23.2142 20.6436 22.5624 20.4501C21.9716 20.2734 21.5194 19.9495 21.0835 19.5541C20.7942 19.2933 20.2686 18.6539 20.2075 18.0229V18.0187Z" fill="white"/>
<path fill-rule="evenodd" clip-rule="evenodd" d="M16.0397 17.2192C15.3309 17.2697 14.9194 17.8334 14.8134 18.5401C14.7076 19.2258 14.9479 20.1471 15.119 20.7654C15.2046 21.0683 15.3594 21.4133 15.4816 21.6825C15.6161 21.9812 15.7505 22.2672 15.8972 22.5448C16.2109 23.138 16.5205 23.6512 16.8872 24.1181L17.3883 24.7239C17.4168 24.7575 17.4412 24.7743 17.4698 24.808C17.6409 24.9889 17.9057 25.2792 18.1013 25.4474C18.4476 25.7461 19.0587 26.3013 19.6291 26.4654C20.0324 26.579 20.342 26.4023 20.4561 26.0994C20.5824 25.7671 20.5172 25.2918 20.4439 24.951C20.2891 24.2485 20.0324 23.647 19.7798 23.0412C19.7472 22.9613 19.7309 22.873 19.6372 22.8688C19.405 22.8562 18.965 23.6049 18.6431 23.2894C18.5535 23.2011 18.4191 23.0328 18.529 22.8604C18.5983 22.751 18.745 22.65 18.859 22.5532C18.965 22.4607 19.075 22.3513 19.1524 22.2125C19.3968 21.7708 19.185 20.8075 18.8509 20.8201C18.7368 20.8243 18.5168 20.9926 18.4476 21.0515C18.2357 21.2324 17.4575 22.1915 17.4901 21.4385C17.4983 21.245 17.5553 21.0851 17.6368 20.9463C17.8079 20.6561 18.032 20.513 18.2642 20.2901C18.4354 20.126 18.7653 19.8778 18.5942 19.4446C18.5372 19.3015 18.4517 19.108 18.2765 19.1248C18.142 19.1375 17.9464 19.2889 17.8691 19.352C17.7509 19.4488 17.6409 19.5413 17.5227 19.6381C17.2457 19.861 16.9524 20.0629 16.7364 19.6801C16.3901 19.0701 17.7387 18.6579 17.9383 18.4265C18.0198 18.3298 17.8405 18.0858 17.7794 18.0017C17.4698 17.5768 16.8179 17.173 16.0397 17.2277" fill="white"/>
<path fill-rule="evenodd" clip-rule="evenodd" d="M34.0962 16.0712C34.0432 16.1132 33.6725 16.1637 33.5095 16.5928C33.4239 16.82 33.4443 17.0598 33.5502 17.2743C33.5869 17.3458 33.6276 17.3836 33.6521 17.4383C33.2691 17.4678 32.9473 17.6276 32.7435 17.8885C32.6132 18.0567 32.5236 18.2292 32.4788 18.4564L32.4462 18.4143C32.4462 18.4143 32.4339 18.3891 32.4217 18.368C32.1324 17.8422 31.4032 17.7707 31.0202 18.2124C30.6454 18.6498 30.7391 19.2892 31.1995 19.5879C31.2525 19.6216 31.338 19.6468 31.3828 19.6847C30.9876 20.118 31.0447 20.7784 31.5376 21.1023C31.5539 21.1107 31.5621 21.1191 31.5784 21.1275L31.6191 21.157C31.5172 21.2159 31.452 21.2285 31.3625 21.3C30.9387 21.6239 30.8532 22.2676 31.2728 22.705C31.4969 22.9448 31.6843 22.9154 31.8106 22.9785C31.6435 23.0542 31.505 23.1846 31.4317 23.3486C31.3136 23.6137 31.3543 23.7314 31.4154 23.9965C31.171 23.9249 31.0487 23.8703 30.7758 23.967C30.5884 24.0343 30.4376 24.1732 30.3561 24.3036C30.1158 24.6779 30.2013 25.1617 30.4661 25.4225C31.1424 26.083 32.2384 25.3173 31.8147 24.4045C31.9532 24.4045 32.2058 24.5517 32.5317 24.3078C32.6906 24.19 32.825 23.988 32.8373 23.6936C32.9758 23.6221 33.1877 23.5926 33.3017 23.2771C33.3465 23.1593 33.3587 23.0205 33.3261 22.8901C33.2895 22.7387 33.2365 22.6924 33.1754 22.5872C33.5665 22.5578 33.8314 22.318 33.9698 22.0572C34.0513 21.9016 34.0962 21.7039 34.0799 21.4935C34.0595 21.2453 33.9861 21.178 33.9088 21.0098C34.2225 21.0056 34.471 20.8962 34.5891 20.5765C34.7643 20.1053 34.4262 19.8697 34.3569 19.7688C34.5199 19.6384 34.6176 19.5627 34.7317 19.3734C34.8295 19.2093 34.9069 19.0032 34.9151 18.7676C34.9477 18.0735 34.4914 17.7749 34.4384 17.6907C34.581 17.6234 34.7195 17.6066 34.858 17.4299C35.2817 16.8999 34.9721 16.2226 34.471 16.0922C34.5158 16.0543 34.8988 15.924 34.8377 15.478C34.8051 15.2257 34.5973 15.0153 34.3365 14.9985C33.7173 14.9648 33.5584 15.844 34.0962 16.0628" fill="white"/>
<path fill-rule="evenodd" clip-rule="evenodd" d="M25.2187 10.0556C25.2553 10.0808 25.9642 10.2532 26.0783 10.2869C26.8891 10.5351 27.6632 10.859 28.3761 11.2797C28.8772 11.5741 29.2724 11.8854 29.6309 12.2262C29.9243 12.4996 30.3928 13.1054 30.5802 13.4881C30.6495 13.4545 30.6943 13.3577 30.8857 13.2863C31.5987 13.0086 32.2709 13.8289 31.8228 14.523C31.7006 14.7123 31.4724 14.8763 31.1465 14.8763C31.171 15.0362 31.2361 15.2465 31.2687 15.4148C31.3991 16.0584 31.4073 16.5548 31.4683 17.2026C31.6313 17.1774 32.3769 16.4875 32.5195 16.336C33.6602 15.1288 34.1247 13.7069 33.4198 12.0537C33.2162 11.5741 32.8658 11.0736 32.5399 10.6739C32.495 10.615 32.438 10.5393 32.3891 10.493C32.0998 10.2028 32.1039 10.165 31.7454 9.85364C31.5254 9.66433 31.2687 9.47506 30.9917 9.3152C29.7206 8.59586 28.2335 8.53697 26.8972 9.17216C26.6079 9.31099 26.3228 9.45824 26.0498 9.60122C25.9072 9.67695 25.7646 9.75267 25.6302 9.82419C25.4916 9.89992 25.349 9.98826 25.2105 10.0514M29.2683 9.83261C29.6594 9.74005 29.9569 10.0177 30.0221 10.3248C30.1076 10.7202 29.8387 11.0315 29.5454 11.103C29.1583 11.1956 28.861 10.9179 28.7917 10.615C28.698 10.2112 28.9668 9.89992 29.2683 9.8284V9.83261ZM32.4299 11.9023C32.3728 12.2346 32.0754 12.5164 31.6924 12.4533C31.3747 12.3986 31.1017 12.0873 31.1628 11.6919C31.2158 11.3596 31.5172 11.0778 31.9043 11.1409C32.218 11.1956 32.4991 11.511 32.4339 11.9023H32.4299Z" fill="white"/>
<path fill-rule="evenodd" clip-rule="evenodd" d="M17.0664 11.3091C16.2068 11.4311 15.8401 12.4322 15.6731 13.3535C15.6446 13.5091 15.6038 13.5343 15.5386 13.6521C15.2535 14.1695 15.066 14.7795 15.2901 15.3685C15.4408 15.7639 15.7872 16.0667 16.1905 16.1761C16.4309 16.2434 16.6997 16.2266 16.9523 16.1929C17.7835 16.0794 18.1664 15.7176 18.7816 15.4694C19.0586 15.3558 19.2216 15.3937 19.515 15.4399C20.0446 15.5199 20.5661 15.5409 20.9653 15.2675C21.169 15.1287 21.2587 14.9856 21.3972 14.8426C21.5601 14.6744 21.7679 14.6071 21.9716 14.7963C22.5298 15.318 22.2527 15.9742 22.6846 15.5493C23.0431 15.196 22.8231 15.1203 22.4768 14.851C22.3913 14.7837 22.3301 14.7206 22.2446 14.6533C22.0246 14.4851 21.7883 14.5019 21.6416 14.4051C21.3565 14.2158 21.5927 13.425 20.3094 13.1684C19.8816 13.0843 19.5394 12.6804 19.3031 12.4701C19.1523 12.3397 19.0179 12.184 18.859 12.0579C18.7001 11.9274 18.5697 11.8054 18.3783 11.6834C18.0605 11.4815 17.5472 11.2376 17.0705 11.3049" fill="white"/>
<path fill-rule="evenodd" clip-rule="evenodd" d="M22.8231 10.9513C22.4483 11.0144 22.4035 11.1237 22.3342 11.5066C22.0775 12.8864 22.9372 14.9307 24.0657 14.9433C24.7053 14.9518 25.4957 14.1273 25.8787 13.6225C26.0661 13.3743 26.9217 12.1207 26.5713 11.8305C26.4979 11.7716 26.3309 11.6916 26.2291 11.6496C25.508 11.3551 23.6909 10.8041 22.8272 10.9513M24.4528 12.2427C24.3672 12.7223 23.6828 12.5666 23.7683 12.0913C23.8009 11.9188 23.9679 11.7758 24.1757 11.822C24.3346 11.8599 24.4935 12.0282 24.4528 12.2427Z" fill="white"/>
<path fill-rule="evenodd" clip-rule="evenodd" d="M26.4084 25.7459C26.3309 25.7627 26.0498 25.7627 25.9683 25.7459C25.8461 25.7291 25.7239 25.6786 25.6261 25.6239C25.4428 25.5271 25.4713 25.5313 25.3694 25.422C25.2676 25.3126 25.1454 25.3841 25.1209 25.5356C25.072 25.8342 25.3898 25.9183 25.6424 25.9394C25.9642 25.9646 26.2046 25.9015 26.5061 25.8636C26.4817 25.9225 26.445 25.9646 26.4124 26.0235C26.1557 26.4862 26.2087 26.9322 26.5713 27.2981C26.9258 27.6557 27.3861 27.8239 28.0502 27.6725C28.698 27.5211 29.5617 26.9574 29.6554 26.318C29.7206 25.8805 29.4884 25.7627 29.3865 25.5945C29.1706 25.2284 29.4761 25.1653 29.4639 24.833C29.411 23.4701 26.8157 23.3986 26.2046 24.2399C25.8747 24.6942 26.168 25.3883 26.4084 25.7416" fill="white"/>
<path fill-rule="evenodd" clip-rule="evenodd" d="M22.3505 8.7938C22.5217 8.83587 22.6602 8.96629 22.7335 9.11774C22.762 9.17663 22.7701 9.24389 22.8027 9.29858C23.202 9.42479 23.4505 9.12615 23.6176 8.96208C23.7194 8.86111 23.8009 8.76435 23.9435 8.68442C24.0902 8.60028 24.2368 8.58766 24.4161 8.55826C25.0883 8.44468 24.962 8.19226 25.2594 8.18805C25.4305 8.18805 25.6139 8.25116 25.8054 8.24695C26.2169 8.24695 26.1761 8.06184 26.8728 8.17122C26.9991 8.19226 27.3087 8.28481 27.3698 8.13757C27.4676 7.89362 26.9624 7.62437 26.7872 7.53182C26.5265 7.39719 26.2332 7.27524 25.9317 7.17848C25.7769 7.128 25.0313 6.93448 24.9009 7.03124C24.7828 7.16166 25.0598 7.55285 24.8765 7.64961C24.7828 7.13221 24.4202 6.92186 23.9272 6.96814C23.4383 7.01021 23.035 7.1869 22.5339 7.22897C21.662 7.29623 21.6457 7.57389 20.8757 8.04081C20.2931 8.39419 19.739 8.66339 20.2117 9.52155C20.2523 9.59307 20.2768 9.58045 20.3705 9.56783C20.5335 9.5468 20.7576 9.45845 20.8798 9.55942C21.1283 9.76556 20.725 9.92958 20.9898 10.161C21.3442 10.4765 22.1387 10.304 22.432 9.87068C22.6235 9.58466 22.322 9.10091 22.3546 8.79801" fill="white"/>
<path fill-rule="evenodd" clip-rule="evenodd" d="M21.9065 17.5979C20.5783 17.6989 21.2831 18.8052 21.8698 19.2805C22.1469 19.5035 22.4565 19.7096 22.8761 19.8274C23.2958 19.941 23.8498 19.9662 24.2735 19.8569C25.6547 19.4909 25.1902 18.1153 23.2998 17.7367C22.872 17.6484 22.3587 17.5684 21.9065 17.6021M22.1265 18.2373C22.2976 18.1952 23.1043 18.4014 23.2591 18.4687C24.0169 18.8052 23.7357 19.4236 22.9087 19.31C22.5543 19.2595 22.2731 19.0113 22.098 18.7126C22.0165 18.5696 21.8902 18.2962 22.1265 18.2373Z" fill="white"/>
<path fill-rule="evenodd" clip-rule="evenodd" d="M24.9824 22.8604C24.5098 22.9698 24.082 23.3694 23.9232 23.7648C23.7969 24.0761 23.9069 24.3201 24.0779 24.4757L24.3672 24.6692C24.465 24.7365 24.5872 24.7912 24.7339 24.7954C25.2513 24.8207 25.675 24.3117 25.7891 23.8952C25.948 23.3105 25.5772 22.7216 24.9824 22.8604Z" fill="white"/>
<path fill-rule="evenodd" clip-rule="evenodd" d="M18.6553 9.95014C18.6146 10.1815 18.5942 10.3708 18.7613 10.4844C18.9976 10.6484 19.2379 10.4718 19.3316 10.5138C19.3683 10.6316 18.9405 11.0985 19.2583 11.2668C19.3235 11.2163 19.6902 10.4718 20.0935 10.5222C20.0324 10.598 19.9387 10.7956 19.902 10.9218C19.849 11.0901 19.8206 11.2752 19.8327 11.4687C19.8694 12.0282 20.2769 12.1039 20.4765 11.9735C20.4602 11.9567 20.4765 11.9735 20.4561 11.9524L20.3746 11.8684C20.3461 11.8305 20.3176 11.7758 20.3013 11.7211C20.2565 11.5949 20.2809 11.4771 20.3257 11.3677C20.3543 11.4014 20.3461 11.4056 20.3665 11.4561C20.5416 11.9356 21.2342 12.0071 21.5276 11.5655C21.1324 11.5991 20.9409 11.4266 20.9939 11.0144C20.7739 11.0775 20.6761 11.2121 20.5946 11.0775C20.505 10.9345 20.5335 10.7283 20.5376 10.5475C20.3502 10.5811 20.3094 10.8545 20.1791 10.8714C20.1872 10.619 20.448 10.476 20.4724 10.2193C20.5009 9.90386 20.3054 9.70193 20.0039 9.73559C19.7513 9.76503 19.6087 9.98374 19.3928 10.0805C19.0057 10.253 18.9365 9.97959 18.6676 9.94593" fill="white"/>
<path d="M31.6395 42.2108C31.6395 42.682 31.7006 43.0227 31.8269 43.2331C32.0103 43.5401 32.2628 43.6916 32.5888 43.6916C32.8495 43.6916 33.0695 43.578 33.2488 43.3467C33.4321 43.1153 33.5217 42.7746 33.5217 42.3202C33.5217 41.8112 33.4321 41.4453 33.2569 41.2223C33.0817 40.9993 32.8536 40.8857 32.5806 40.8857C32.3076 40.8857 32.0918 40.9951 31.9084 41.2181C31.7291 41.4368 31.6395 41.7691 31.6395 42.2066M34.6503 44.495H33.6073V43.8472C33.4321 44.0996 33.2243 44.2889 32.988 44.4151C32.7518 44.5413 32.5114 44.6044 32.271 44.6044C31.778 44.6044 31.3584 44.4025 31.008 43.9903C30.6577 43.5822 30.4825 43.0143 30.4825 42.2823C30.4825 41.5504 30.6536 40.9657 30.9958 40.5787C31.338 40.1875 31.7658 39.994 32.2873 39.994C32.7639 39.994 33.1795 40.2001 33.5258 40.6081V38.4123H34.6543V44.4908L34.6503 44.495ZM26.608 42.2992C26.608 42.7367 26.7098 43.0732 26.9095 43.3046C27.1091 43.5401 27.3576 43.6537 27.651 43.6537C27.9443 43.6537 28.1928 43.5359 28.3884 43.3046C28.588 43.0732 28.6858 42.7325 28.6858 42.2908C28.6858 41.8491 28.5839 41.5251 28.3884 41.2938C28.1887 41.0582 27.9443 40.9446 27.651 40.9446C27.3576 40.9446 27.1091 41.0624 26.9095 41.2938C26.7098 41.5251 26.608 41.8617 26.608 42.2992ZM25.4469 42.2361C25.4469 41.8491 25.5406 41.4747 25.7239 41.1129C25.9072 40.7512 26.1721 40.4735 26.5102 40.28C26.8484 40.0907 27.2272 39.994 27.6428 39.994C28.2865 39.994 28.8162 40.2085 29.2276 40.6418C29.6391 41.0751 29.8469 41.6219 29.8469 42.2866C29.8469 42.9512 29.6391 43.5065 29.2236 43.9482C28.808 44.3857 28.2825 44.6044 27.651 44.6044C27.2598 44.6044 26.8891 44.5119 26.5306 44.331C26.1761 44.1501 25.9073 43.8809 25.7198 43.5275C25.5365 43.1742 25.4428 42.7451 25.4428 42.2361H25.4469ZM21.5805 42.2992C21.5805 42.7367 21.6824 43.0732 21.882 43.3046C22.0817 43.5401 22.3302 43.6537 22.6235 43.6537C22.9168 43.6537 23.1654 43.5359 23.3609 43.3046C23.5605 43.0732 23.6583 42.7325 23.6583 42.2908C23.6583 41.8491 23.5565 41.5251 23.3609 41.2938C23.1613 41.0582 22.9168 40.9446 22.6235 40.9446C22.3302 40.9446 22.0817 41.0624 21.882 41.2938C21.6824 41.5251 21.5805 41.8617 21.5805 42.2992ZM20.4194 42.2361C20.4194 41.8491 20.5131 41.4747 20.6965 41.1129C20.8798 40.7512 21.1446 40.4735 21.4828 40.28C21.8209 40.0907 22.1998 39.994 22.6154 39.994C23.2591 39.994 23.7887 40.2085 24.2002 40.6418C24.6117 41.0751 24.8194 41.6219 24.8194 42.2866C24.8194 42.9512 24.6117 43.5065 24.1961 43.9482C23.7806 44.3857 23.255 44.6044 22.6235 44.6044C22.2324 44.6044 21.8617 44.5119 21.5032 44.331C21.1487 44.1501 20.8798 43.8809 20.6924 43.5275C20.509 43.1742 20.4153 42.7451 20.4153 42.2361H20.4194ZM15.6649 44.495V38.4165H19.7105V39.4429H16.8546V40.8857H19.3235V41.9122H16.8546V44.495H15.6609H15.6649ZM31.6558 36.3553V31.9467H32.7843V36.3553H31.6558ZM31.6558 31.3535V30.2767H32.7843V31.3535H31.6558ZM26.5346 36.3553L28.0747 34.0837L26.6039 31.9467H27.981L28.7347 33.1582L29.5332 31.9467H30.8532L29.4069 34.0332L30.9836 36.351H29.6106L28.7306 34.9839L27.8546 36.351H26.5346V36.3553ZM24.8602 34.2477C24.7176 34.2982 24.4854 34.3571 24.1717 34.4244C23.858 34.4917 23.6543 34.5632 23.5565 34.6263C23.4098 34.7357 23.3365 34.8703 23.3365 35.0386C23.3365 35.2068 23.3935 35.3414 23.5117 35.4634C23.6298 35.5812 23.7806 35.6401 23.9598 35.6401C24.1635 35.6401 24.3591 35.5728 24.5424 35.434C24.6768 35.3288 24.7706 35.1984 24.8113 35.047C24.8398 34.946 24.8561 34.7567 24.8561 34.4791V34.2477H24.8602ZM23.3487 33.3054L22.3302 33.1204C22.4443 32.6913 22.6439 32.3716 22.925 32.1654C23.2061 31.9593 23.6257 31.8541 24.1798 31.8541C24.685 31.8541 25.0598 31.913 25.3043 32.0392C25.5487 32.1612 25.7239 32.3169 25.8258 32.5062C25.9276 32.6955 25.9765 33.0446 25.9765 33.5494L25.9602 34.9082C25.9602 35.2952 25.9765 35.5812 26.0132 35.7663C26.0498 35.9514 26.115 36.1491 26.2128 36.3553H25.0924C25.0639 36.2795 25.0272 36.1659 24.9824 36.0145C24.9661 35.943 24.9498 35.9009 24.9417 35.8799C24.7502 36.0734 24.5424 36.2206 24.3265 36.3174C24.1065 36.4141 23.8743 36.4646 23.6257 36.4646C23.1898 36.4646 22.8435 36.3426 22.5909 36.0944C22.3383 35.8504 22.212 35.5392 22.212 35.1605C22.212 34.9124 22.2691 34.6894 22.3831 34.4959C22.4972 34.3024 22.6602 34.151 22.8679 34.05C23.0757 33.9448 23.3732 33.8565 23.7643 33.7766C24.2898 33.6756 24.6565 33.5789 24.8602 33.4905V33.3727C24.8602 33.1456 24.8072 32.9857 24.7013 32.889C24.5913 32.7922 24.3917 32.7459 24.0942 32.7459C23.8946 32.7459 23.7357 32.788 23.6257 32.8722C23.5117 32.9521 23.422 33.0993 23.3528 33.3096L23.3487 33.3054ZM15.6487 36.3553V30.2725H17.4331L18.4883 34.4202L19.5313 30.2725H21.3198V36.3553H20.2157V31.5681L19.0505 36.3553H17.9057L16.7486 31.5681V36.3553H15.6405H15.6487Z" fill="white"/>
</svg>
