<svg width="17" height="21" viewBox="0 0 17 21" fill="none" xmlns="http://www.w3.org/2000/svg">
<path d="M4.83733 13.53C4.65333 13.53 4.52933 13.548 4.46533 13.566V14.744C4.54133 14.762 4.63633 14.767 4.76733 14.767C5.24633 14.767 5.54133 14.525 5.54133 14.116C5.54133 13.75 5.28733 13.53 4.83733 13.53ZM8.32431 13.542C8.12431 13.542 7.99431 13.56 7.91731 13.578V16.188C7.99431 16.206 8.11831 16.206 8.23031 16.206C9.04731 16.212 9.57931 15.762 9.57931 14.81C9.58531 13.98 9.10031 13.542 8.32431 13.542Z" fill="white"/>
<path d="M10.5703 0.849854H2.57031C2.03988 0.849854 1.53117 1.06056 1.1561 1.43564C0.781023 1.81071 0.570312 2.31942 0.570312 2.84985V18.8499C0.570312 19.3803 0.781023 19.889 1.1561 20.2641C1.53117 20.6392 2.03988 20.8499 2.57031 20.8499H14.5703C15.1007 20.8499 15.6094 20.6392 15.9845 20.2641C16.3596 19.889 16.5703 19.3803 16.5703 18.8499V6.84985L10.5703 0.849854ZM6.06831 15.0399C5.75931 15.3299 5.30331 15.4599 4.77231 15.4599C4.66935 15.461 4.56644 15.455 4.46431 15.4419V16.8679H3.57031V12.9319C3.97376 12.8717 4.38143 12.8443 4.78931 12.8499C5.34631 12.8499 5.74231 12.9559 6.00931 13.1689C6.26331 13.3709 6.43531 13.7019 6.43531 14.0919C6.43431 14.4839 6.30431 14.8149 6.06831 15.0399ZM9.87531 16.3949C9.45531 16.7439 8.81631 16.9099 8.03531 16.9099C7.56731 16.9099 7.23631 16.8799 7.01131 16.8499V12.9329C7.41491 12.874 7.82241 12.8462 8.23031 12.8499C8.98731 12.8499 9.47931 12.9859 9.86331 13.2759C10.2783 13.5839 10.5383 14.0749 10.5383 14.7799C10.5383 15.5429 10.2593 16.0699 9.87531 16.3949ZM13.5703 13.6199H12.0383V14.5309H13.4703V15.2649H12.0383V16.8689H11.1323V12.8799H13.5703V13.6199ZM10.5703 7.84985H9.57031V2.84985L14.5703 7.84985H10.5703Z" fill="white"/>
</svg>
