<svg width="12" height="10" viewBox="0 0 12 10" fill="none" xmlns="http://www.w3.org/2000/svg">
<path d="M11.8082 4.53375L7.47457 0.200031C7.35087 0.0763247 7.18599 0.00842285 7.01019 0.00842285C6.83419 0.00842285 6.66941 0.0764223 6.5457 0.200031L6.15224 0.593589C6.02864 0.7171 5.96054 0.882074 5.96054 1.05798C5.96054 1.23378 6.02864 1.40431 6.15224 1.52783L8.68042 4.06156H0.648288C0.286144 4.06156 0 4.34507 0 4.70731V5.2637C0 5.62594 0.286144 5.93803 0.648288 5.93803H8.7091L6.15234 8.48591C6.02873 8.60962 5.96064 8.77011 5.96064 8.94601C5.96064 9.12171 6.02873 9.28454 6.15234 9.40815L6.5458 9.80044C6.66951 9.92415 6.83429 9.99156 7.01029 9.99156C7.18609 9.99156 7.35097 9.92327 7.47467 9.79956L11.8083 5.46594C11.9323 5.34184 12.0005 5.17619 12 5.00009C12.0004 4.82341 11.9323 4.65765 11.8082 4.53375Z" fill="white"/>
</svg>
